ISO-10303-21;
HEADER;
FILE_DESCRIPTION (( 'STEP AP214' ),
    '1' );
FILE_NAME ('KEMET_X7R_C0402CBB.STEP',
    '2024-08-21T06:12:04',
    ( '' ),
    ( '' ),
    'SwSTEP 2.0',
    'SolidWorks 2021',
    '' );
FILE_SCHEMA (( 'AUTOMOTIVE_DESIGN' ));
ENDSEC;

DATA;
#1 = ADVANCED_FACE ( 'NONE', ( #1217 ), #929, .T. ) ;
#2 = APPLICATION_PROTOCOL_DEFINITION ( 'draft international standard', 'automotive_design', 1998, #339 ) ;
#3 = LINE ( 'NONE', #383, #1023 ) ;
#4 = DIRECTION ( 'NONE',  ( 0.000000000000000000, 0.000000000000000000, -1.000000000000000000 ) ) ;
#5 = DIRECTION ( 'NONE',  ( 0.000000000000000000, 0.000000000000000000, -1.000000000000000000 ) ) ;
#6 = ORIENTED_EDGE ( 'NONE', *, *, #548, .T. ) ;
#7 = EDGE_CURVE ( 'NONE', #659, #1114, #509, .T. ) ;
#8 = AXIS2_PLACEMENT_3D ( 'NONE', #407, #1191, #1004 ) ;
#9 = DIRECTION ( 'NONE',  ( 0.000000000000000000, 0.000000000000000000, 1.000000000000000000 ) ) ;
#10 = VECTOR ( 'NONE', #874, 1000.000000000000000 ) ;
#11 = AXIS2_PLACEMENT_3D ( 'NONE', #1071, #703, #290 ) ;
#12 = CARTESIAN_POINT ( 'NONE',  ( 500000.0000000000582, 0.02499999999999995975, -0.2416666667100346999 ) ) ;
#13 = DIRECTION ( 'NONE',  ( -0.000000000000000000, -1.000000000000000000, -0.000000000000000000 ) ) ;
#14 = ORIENTED_EDGE ( 'NONE', *, *, #404, .F. ) ;
#15 = EDGE_CURVE ( 'NONE', #434, #237, #924, .T. ) ;
#16 = DIRECTION ( 'NONE',  ( 0.000000000000000000, 0.000000000000000000, -1.000000000000000000 ) ) ;
#17 = VERTEX_POINT ( 'NONE', #623 ) ;
#18 = APPLICATION_PROTOCOL_DEFINITION ( 'draft international standard', 'automotive_design', 1998, #295 ) ;
#19 = DIRECTION ( 'NONE',  ( 1.084202172485504681E-16, 0.000000000000000000, 1.000000000000000000 ) ) ;
#20 = DIRECTION ( 'NONE',  ( -1.000000000000000000, 0.000000000000000000, 0.000000000000000000 ) ) ;
#21 = MECHANICAL_DESIGN_GEOMETRIC_PRESENTATION_REPRESENTATION (  '', ( #317 ), #1268 ) ;
#22 = CARTESIAN_POINT ( 'NONE',  ( 0.1999999999999999833, 0.5500000000000000444, -0.2249999999999999500 ) ) ;
#23 = CARTESIAN_POINT ( 'NONE',  ( 0.4749999999999998668, 0.02499999999999995628, 0.2249999999999999500 ) ) ;
#24 = ORIENTED_EDGE ( 'NONE', *, *, #484, .F. ) ;
#25 = CARTESIAN_POINT ( 'NONE',  ( -0.5000000000000000000, 0.5500000000000000444, -0.2249999999999999500 ) ) ;
#26 = DIRECTION ( 'NONE',  ( -1.000000000000000000, 0.000000000000000000, 8.673617379884036705E-17 ) ) ;
#27 = EDGE_LOOP ( 'NONE', ( #633, #57, #24 ) ) ;
#28 = DIRECTION ( 'NONE',  ( 0.000000000000000000, 0.000000000000000000, 1.000000000000000000 ) ) ;
#29 = VERTEX_POINT ( 'NONE', #529 ) ;
#30 = CARTESIAN_POINT ( 'NONE',  ( 0.000000000000000000, 0.000000000000000000, 0.000000000000000000 ) ) ;
#31 = AXIS2_PLACEMENT_3D ( 'NONE', #537, #246, #941 ) ;
#32 =( GEOMETRIC_REPRESENTATION_CONTEXT ( 3 ) GLOBAL_UNCERTAINTY_ASSIGNED_CONTEXT ( ( #1077 ) ) GLOBAL_UNIT_ASSIGNED_CONTEXT ( ( #1253, #356, #844 ) ) REPRESENTATION_CONTEXT ( 'NONE', 'WORKASPACE' ) );
#33 = DIRECTION ( 'NONE',  ( -1.000000000000000000, 0.000000000000000000, 0.000000000000000000 ) ) ;
#34 = CARTESIAN_POINT ( 'NONE',  ( 0.4999999999999998890, 0.02499999999999995628, 0.2249999999999999500 ) ) ;
#35 = EDGE_CURVE ( 'NONE', #69, #659, #204, .T. ) ;
#36 = CARTESIAN_POINT ( 'NONE',  ( 0.4749999999999999778, 0.5500000000000000444, -0.2249999999999999500 ) ) ;
#37 = EDGE_LOOP ( 'NONE', ( #568, #287, #752, #660 ) ) ;
#38 = DIRECTION ( 'NONE',  ( 0.000000000000000000, 1.000000000000000000, 0.000000000000000000 ) ) ;
#39 = ADVANCED_FACE ( 'NONE', ( #735 ), #112, .T. ) ;
#40 = DIRECTION ( 'NONE',  ( 0.000000000000000000, -0.000000000000000000, 1.000000000000000000 ) ) ;
#41 = EDGE_CURVE ( 'NONE', #461, #1049, #448, .T. ) ;
#42 = AXIS2_PLACEMENT_3D ( 'NONE', #196, #392, #598 ) ;
#43 = CARTESIAN_POINT ( 'NONE',  ( -0.4749999999999999778, 0.5250000000000000222, -0.2499999999999999445 ) ) ;
#44 = ORIENTED_EDGE ( 'NONE', *, *, #59, .F. ) ;
#45 = LINE ( 'NONE', #746, #70 ) ;
#46 = DIRECTION ( 'NONE',  ( -1.000000000000000000, -0.000000000000000000, 8.673617379884036705E-17 ) ) ;
#47 = LINE ( 'NONE', #547, #1157 ) ;
#48 = CARTESIAN_POINT ( 'NONE',  ( 0.000000000000000000, 0.000000000000000000, -0.2249999999999999500 ) ) ;
#49 = ORIENTED_EDGE ( 'NONE', *, *, #1193, .F. ) ;
#50 = FACE_OUTER_BOUND ( 'NONE', #74, .T. ) ;
#51 = AXIS2_PLACEMENT_3D ( 'NONE', #410, #405, #741 ) ;
#52 = CIRCLE ( 'NONE', #409, 0.01666666666666667337 ) ;
#53 = AXIS2_PLACEMENT_3D ( 'NONE', #180, #964, #1269 ) ;
#54 = SPHERICAL_SURFACE ( 'NONE', #493, 0.02500000000000000139 ) ;
#55 = CYLINDRICAL_SURFACE ( 'NONE', #184, 0.02500000000000001180 ) ;
#56 = CARTESIAN_POINT ( 'NONE',  ( 0.1999999999999999833, 0.5250000000000000222, -0.2499999999999999445 ) ) ;
#57 = ORIENTED_EDGE ( 'NONE', *, *, #481, .T. ) ;
#58 = ORIENTED_EDGE ( 'NONE', *, *, #955, .T. ) ;
#59 = EDGE_CURVE ( 'NONE', #552, #1233, #1106, .T. ) ;
#60 = CARTESIAN_POINT ( 'NONE',  ( 0.2000000000066393113, 0.02499999999999995628, -0.2250000000000000056 ) ) ;
#61 = CARTESIAN_POINT ( 'NONE',  ( -0.4749999999999998668, 0.02500000000000000139, 0.2249999999999999500 ) ) ;
#62 = ORIENTED_EDGE ( 'NONE', *, *, #86, .F. ) ;
#63 = SURFACE_STYLE_FILL_AREA ( #542 ) ;
#64 = ORIENTED_EDGE ( 'NONE', *, *, #731, .F. ) ;
#65 = VECTOR ( 'NONE', #377, 1000.000000000000000 ) ;
#66 = DIRECTION ( 'NONE',  ( 0.000000000000000000, 0.000000000000000000, 1.000000000000000000 ) ) ;
#67 = SURFACE_SIDE_STYLE ('',( #1249 ) ) ;
#68 = ORIENTED_EDGE ( 'NONE', *, *, #577, .T. ) ;
#69 = VERTEX_POINT ( 'NONE', #34 ) ;
#70 = VECTOR ( 'NONE', #833, 1000.000000000000000 ) ;
#71 = CARTESIAN_POINT ( 'NONE',  ( -0.4749999999999999778, 0.02500000000000000139, -0.2249999999999999500 ) ) ;
#72 = AXIS2_PLACEMENT_3D ( 'NONE', #332, #742, #145 ) ;
#73 = CARTESIAN_POINT ( 'NONE',  ( 0.4749999999999999778, 0.5250000000000000222, -0.2249999999999999500 ) ) ;
#74 = EDGE_LOOP ( 'NONE', ( #809, #363, #115, #694 ) ) ;
#75 = CARTESIAN_POINT ( 'NONE',  ( 0.1999999999999999278, 0.5500000000000000444, 0.2499999999999999445 ) ) ;
#76 = CARTESIAN_POINT ( 'NONE',  ( 500000.0000000000582, 0.008333333333333296788, 0.2249999999566318354 ) ) ;
#77 = ORIENTED_EDGE ( 'NONE', *, *, #1237, .F. ) ;
#78 = ORIENTED_EDGE ( 'NONE', *, *, #1062, .F. ) ;
#79 = ORIENTED_EDGE ( 'NONE', *, *, #634, .F. ) ;
#80 = DIRECTION ( 'NONE',  ( -2.168404344971009361E-16, 0.000000000000000000, 1.000000000000000000 ) ) ;
#81 = CARTESIAN_POINT ( 'NONE',  ( 0.4749999999999998668, 0.02500000000000000139, 0.2249999999999999500 ) ) ;
#82 = DIRECTION ( 'NONE',  ( 0.000000000000000000, 0.000000000000000000, 1.000000000000000000 ) ) ;
#83 = CARTESIAN_POINT ( 'NONE',  ( -0.4749999999999998668, 0.5500000000000000444, 0.2499999999999999445 ) ) ;
#84 = AXIS2_PLACEMENT_3D ( 'NONE', #1124, #1199, #641 ) ;
#85 = VERTEX_POINT ( 'NONE', #728 ) ;
#86 = EDGE_CURVE ( 'NONE', #1181, #1147, #1002, .T. ) ;
#87 = CIRCLE ( 'NONE', #584, 0.02500000000000001180 ) ;
#88 = EDGE_CURVE ( 'NONE', #305, #100, #1040, .T. ) ;
#89 = SPHERICAL_SURFACE ( 'NONE', #1192, 0.02500000000000000139 ) ;
#90 = AXIS2_PLACEMENT_3D ( 'NONE', #498, #551, #904 ) ;
#91 = ADVANCED_FACE ( 'NONE', ( #1100 ), #227, .T. ) ;
#92 = CARTESIAN_POINT ( 'NONE',  ( 0.5000000000000000000, 0.02499999999999995628, -0.2249999999999999500 ) ) ;
#93 = CARTESIAN_POINT ( 'NONE',  ( -0.5000000000000000000, 0.5500000000000000444, -0.2499999999999999445 ) ) ;
#94 = LINE ( 'NONE', #76, #544 ) ;
#95 = EDGE_LOOP ( 'NONE', ( #995, #589, #191, #280 ) ) ;
#96 = LINE ( 'NONE', #789, #1011 ) ;
#97 = DIRECTION ( 'NONE',  ( -1.000000000000000000, 0.000000000000000000, 0.000000000000000000 ) ) ;
#98 = CARTESIAN_POINT ( 'NONE',  ( -0.1999999999999999833, 0.000000000000000000, -0.2499999999999999445 ) ) ;
#99 = PLANE ( 'NONE',  #470 ) ;
#100 = VERTEX_POINT ( 'NONE', #835 ) ;
#101 =( NAMED_UNIT ( * ) PLANE_ANGLE_UNIT ( ) SI_UNIT ( $, .RADIAN. ) );
#102 = ADVANCED_FACE ( 'NONE', ( #338 ), #55, .T. ) ;
#103 = CARTESIAN_POINT ( 'NONE',  ( -0.5000000000000000000, 0.5500000000000000444, -0.2499999999999999445 ) ) ;
#104 = ORIENTED_EDGE ( 'NONE', *, *, #679, .F. ) ;
#105 = AXIS2_PLACEMENT_3D ( 'NONE', #136, #1210, #738 ) ;
#106 = DIRECTION ( 'NONE',  ( 0.000000000000000000, 0.000000000000000000, 1.000000000000000000 ) ) ;
#107 = SURFACE_SIDE_STYLE ('',( #785 ) ) ;
#108 = CIRCLE ( 'NONE', #306, 0.02500000000000001180 ) ;
#109 = AXIS2_PLACEMENT_3D ( 'NONE', #93, #82, #776 ) ;
#110 = SURFACE_STYLE_USAGE ( .BOTH. , #851 ) ;
#111 = DIRECTION ( 'NONE',  ( -1.000000000000000000, 0.000000000000000000, 1.084202172485504681E-16 ) ) ;
#112 = PLANE ( 'NONE',  #430 ) ;
#113 = CARTESIAN_POINT ( 'NONE',  ( -0.4749999999999998668, 0.5500000000000000444, 0.2249999999999999500 ) ) ;
#114 = DIRECTION ( 'NONE',  ( -1.000000000000000000, 0.000000000000000000, -0.000000000000000000 ) ) ;
#115 = ORIENTED_EDGE ( 'NONE', *, *, #958, .F. ) ;
#116 = DIRECTION ( 'NONE',  ( 1.000000000000000000, 0.000000000000000000, 1.084202172485504681E-16 ) ) ;
#117 = FACE_OUTER_BOUND ( 'NONE', #1154, .T. ) ;
#118 = ORIENTED_EDGE ( 'NONE', *, *, #477, .T. ) ;
#119 = EDGE_CURVE ( 'NONE', #186, #255, #1116, .T. ) ;
#120 = DIRECTION ( 'NONE',  ( 0.000000000000000000, 0.000000000000000000, 1.000000000000000000 ) ) ;
#121 = DIRECTION ( 'NONE',  ( 0.000000000000000000, 0.000000000000000000, 1.000000000000000000 ) ) ;
#122 = ORIENTED_EDGE ( 'NONE', *, *, #1050, .F. ) ;
#123 = CARTESIAN_POINT ( 'NONE',  ( 0.4749999999999999778, 0.02499999999999995628, -0.2249999999999999500 ) ) ;
#124 = ORIENTED_EDGE ( 'NONE', *, *, #1235, .F. ) ;
#125 = ADVANCED_FACE ( 'NONE', ( #439 ), #755, .T. ) ;
#126 = CYLINDRICAL_SURFACE ( 'NONE', #1094, 0.01666666666666667337 ) ;
#127 = EDGE_LOOP ( 'NONE', ( #956, #1020, #62, #58, #670, #845, #199, #1060 ) ) ;
#128 = AXIS2_PLACEMENT_3D ( 'NONE', #36, #817, #312 ) ;
#129 = FACE_OUTER_BOUND ( 'NONE', #788, .T. ) ;
#130 = AXIS2_PLACEMENT_3D ( 'NONE', #1126, #239, #560 ) ;
#131 = AXIS2_PLACEMENT_3D ( 'NONE', #578, #978, #274 ) ;
#132 = CARTESIAN_POINT ( 'NONE',  ( 0.4999999999999998890, 0.5250000000000000222, 0.2249999999999999500 ) ) ;
#133 = DIRECTION ( 'NONE',  ( 0.000000000000000000, 0.000000000000000000, -1.000000000000000000 ) ) ;
#134 = DIRECTION ( 'NONE',  ( 0.000000000000000000, 0.000000000000000000, 1.000000000000000000 ) ) ;
#135 = ORIENTED_EDGE ( 'NONE', *, *, #876, .F. ) ;
#136 = CARTESIAN_POINT ( 'NONE',  ( -0.4749999999999999778, 0.02499999999999995628, -0.2249999999999999500 ) ) ;
#137 =( GEOMETRIC_REPRESENTATION_CONTEXT ( 3 ) GLOBAL_UNCERTAINTY_ASSIGNED_CONTEXT ( ( #194 ) ) GLOBAL_UNIT_ASSIGNED_CONTEXT ( ( #193, #706, #878 ) ) REPRESENTATION_CONTEXT ( 'NONE', 'WORKASPACE' ) );
#138 = ADVANCED_FACE ( 'NONE', ( #749 ), #1231, .T. ) ;
#139 = DIRECTION ( 'NONE',  ( 1.000000000000000000, 0.000000000000000000, 1.084202172485504681E-16 ) ) ;
#140 = CARTESIAN_POINT ( 'NONE',  ( -0.1999999999999999833, 0.02499999999999995628, -0.2249999999999999500 ) ) ;
#141 = AXIS2_PLACEMENT_3D ( 'NONE', #468, #97, #583 ) ;
#142 = CARTESIAN_POINT ( 'NONE',  ( 0.4999999999999998890, 0.02499999999999995628, 0.2249999999999999500 ) ) ;
#143 = VERTEX_POINT ( 'NONE', #433 ) ;
#144 = CARTESIAN_POINT ( 'NONE',  ( -0.1999999999999999278, 0.02499999999999995628, 0.2416666666666666408 ) ) ;
#145 = DIRECTION ( 'NONE',  ( -8.673617379884036705E-17, 0.000000000000000000, -1.000000000000000000 ) ) ;
#146 = CARTESIAN_POINT ( 'NONE',  ( -0.4749999999999998668, 0.02499999999999995628, 0.2249999999999999500 ) ) ;
#147 = VECTOR ( 'NONE', #806, 1000.000000000000000 ) ;
#148 = CARTESIAN_POINT ( 'NONE',  ( -0.1999999999999999833, 0.5250000000000000222, -0.2499999999999999445 ) ) ;
#149 = DIRECTION ( 'NONE',  ( -1.000000000000000000, -0.000000000000000000, -0.000000000000000000 ) ) ;
#150 = ORIENTED_EDGE ( 'NONE', *, *, #35, .F. ) ;
#151 = LINE ( 'NONE', #25, #349 ) ;
#152 = VECTOR ( 'NONE', #1111, 1000.000000000000000 ) ;
#153 = DIRECTION ( 'NONE',  ( 0.000000000000000000, -1.000000000000000000, 0.000000000000000000 ) ) ;
#154 = CARTESIAN_POINT ( 'NONE',  ( -0.4749999999999998668, 0.000000000000000000, 0.2249999999999999500 ) ) ;
#155 = ORIENTED_EDGE ( 'NONE', *, *, #1215, .F. ) ;
#156 = EDGE_LOOP ( 'NONE', ( #64, #875, #831, #856 ) ) ;
#157 = CARTESIAN_POINT ( 'NONE',  ( 500000.0000000000582, 0.5250000000000000222, -0.2250000000433680647 ) ) ;
#158 = LINE ( 'NONE', #455, #791 ) ;
#159 = ORIENTED_EDGE ( 'NONE', *, *, #273, .F. ) ;
#160 = VECTOR ( 'NONE', #894, 1000.000000000000000 ) ;
#161 = ORIENTED_EDGE ( 'NONE', *, *, #553, .T. ) ;
#162 = CYLINDRICAL_SURFACE ( 'NONE', #857, 0.01666666666666664562 ) ;
#163 = DIRECTION ( 'NONE',  ( 0.000000000000000000, 0.000000000000000000, 1.000000000000000000 ) ) ;
#164 = ORIENTED_EDGE ( 'NONE', *, *, #178, .F. ) ;
#165 = EDGE_CURVE ( 'NONE', #342, #1049, #848, .T. ) ;
#166 = ORIENTED_EDGE ( 'NONE', *, *, #397, .F. ) ;
#167 = AXIS2_PLACEMENT_3D ( 'NONE', #632, #1019, #28 ) ;
#168 = CYLINDRICAL_SURFACE ( 'NONE', #566, 0.02500000000000001180 ) ;
#169 = VECTOR ( 'NONE', #637, 1000.000000000000000 ) ;
#170 = DIRECTION ( 'NONE',  ( 1.000000000000000000, 0.000000000000000000, 1.084202172485504681E-16 ) ) ;
#171 = EDGE_LOOP ( 'NONE', ( #700, #150, #517, #858 ) ) ;
#172 = ORIENTED_EDGE ( 'NONE', *, *, #450, .T. ) ;
#173 = PRODUCT_RELATED_PRODUCT_CATEGORY ( 'part', '', ( #475 ) ) ;
#174 = ORIENTED_EDGE ( 'NONE', *, *, #1017, .T. ) ;
#175 = DIRECTION ( 'NONE',  ( -1.000000000000000000, -0.000000000000000000, -0.000000000000000000 ) ) ;
#176 = EDGE_LOOP ( 'NONE', ( #938, #1227, #846, #931 ) ) ;
#177 = CIRCLE ( 'NONE', #417, 0.02500000000000001180 ) ;
#178 = EDGE_CURVE ( 'NONE', #357, #620, #1240, .T. ) ;
#179 = DIRECTION ( 'NONE',  ( -1.000000000000000000, 0.000000000000000000, 0.000000000000000000 ) ) ;
#180 = CARTESIAN_POINT ( 'NONE',  ( 500000.0000000000582, 0.008333333333333333218, 0.2249999999566318354 ) ) ;
#181 = ORIENTED_EDGE ( 'NONE', *, *, #865, .T. ) ;
#182 = VERTEX_POINT ( 'NONE', #252 ) ;
#183 = DIRECTION ( 'NONE',  ( 2.168404344971009361E-16, 0.000000000000000000, -1.000000000000000000 ) ) ;
#184 = AXIS2_PLACEMENT_3D ( 'NONE', #240, #644, #344 ) ;
#185 = CARTESIAN_POINT ( 'NONE',  ( -0.4749999999999998668, 0.5500000000000000444, 0.2499999999999999445 ) ) ;
#186 = VERTEX_POINT ( 'NONE', #154 ) ;
#187 = PRESENTATION_LAYER_ASSIGNMENT (  '', '', ( #813 ) ) ;
#188 = DIRECTION ( 'NONE',  ( 0.000000000000000000, -0.000000000000000000, -1.000000000000000000 ) ) ;
#189 = ORIENTED_EDGE ( 'NONE', *, *, #969, .F. ) ;
#190 = DIRECTION ( 'NONE',  ( 1.000000000000000000, 0.000000000000000000, 0.000000000000000000 ) ) ;
#191 = ORIENTED_EDGE ( 'NONE', *, *, #832, .F. ) ;
#192 = CARTESIAN_POINT ( 'NONE',  ( -0.5000000000000000000, 0.5500000000000000444, -0.2249999999999999500 ) ) ;
#193 =( LENGTH_UNIT ( ) NAMED_UNIT ( * ) SI_UNIT ( .MILLI., .METRE. ) );
#194 = UNCERTAINTY_MEASURE_WITH_UNIT (LENGTH_MEASURE( 1.000000000000000082E-05 ), #193, 'distance_accuracy_value', 'NONE');
#195 = AXIS2_PLACEMENT_3D ( 'NONE', #975, #1261, #183 ) ;
#196 = CARTESIAN_POINT ( 'NONE',  ( 0.4749999999999998668, 0.02499999999999995628, 0.2249999999999999500 ) ) ;
#197 = AXIS2_PLACEMENT_3D ( 'NONE', #92, #272, #1088 ) ;
#198 = LINE ( 'NONE', #599, #1041 ) ;
#199 = ORIENTED_EDGE ( 'NONE', *, *, #958, .T. ) ;
#200 = CARTESIAN_POINT ( 'NONE',  ( -0.4999999999999998890, 0.5250000000000000222, 0.2249999999999999500 ) ) ;
#201 =( LENGTH_UNIT ( ) NAMED_UNIT ( * ) SI_UNIT ( .MILLI., .METRE. ) );
#202 = EDGE_CURVE ( 'NONE', #1259, #259, #47, .T. ) ;
#203 = CARTESIAN_POINT ( 'NONE',  ( 0.1999999999999999278, 0.5500000000000000444, 0.2249999999999999500 ) ) ;
#204 = LINE ( 'NONE', #311, #284 ) ;
#205 = CIRCLE ( 'NONE', #105, 0.02500000000000001180 ) ;
#206 = CARTESIAN_POINT ( 'NONE',  ( -0.1999999999999999833, 0.02499999999999995628, -0.2499999999999999445 ) ) ;
#207 = CARTESIAN_POINT ( 'NONE',  ( 0.1999999999999999833, 0.000000000000000000, -0.2499999999999999445 ) ) ;
#208 = VERTEX_POINT ( 'NONE', #425 ) ;
#209 = COLOUR_RGB ( '',0.7921568627450980005, 0.8196078431372548767, 0.9333333333333333481 ) ;
#210 = PRESENTATION_LAYER_ASSIGNMENT (  '', '', ( #963 ) ) ;
#211 = ADVANCED_FACE ( 'NONE', ( #932 ), #1104, .T. ) ;
#212 = DIRECTION ( 'NONE',  ( -0.000000000000000000, 0.000000000000000000, -1.000000000000000000 ) ) ;
#213 = CARTESIAN_POINT ( 'NONE',  ( 500000.0000000000582, 0.5250000000000000222, -0.2416666667100346999 ) ) ;
#214 = LINE ( 'NONE', #619, #895 ) ;
#215 = ORIENTED_EDGE ( 'NONE', *, *, #119, .T. ) ;
#216 = DIRECTION ( 'NONE',  ( 0.000000000000000000, 0.000000000000000000, -1.000000000000000000 ) ) ;
#217 = VECTOR ( 'NONE', #803, 1000.000000000000000 ) ;
#218 = EDGE_CURVE ( 'NONE', #348, #1145, #302, .T. ) ;
#219 = PLANE ( 'NONE',  #365 ) ;
#220 = ORIENTED_EDGE ( 'NONE', *, *, #780, .T. ) ;
#221 = FACE_OUTER_BOUND ( 'NONE', #1030, .T. ) ;
#222 = ORIENTED_EDGE ( 'NONE', *, *, #404, .T. ) ;
#223 = ADVANCED_FACE ( 'NONE', ( #329 ), #422, .T. ) ;
#224 = CARTESIAN_POINT ( 'NONE',  ( -0.4999999999999998890, 0.5500000000000000444, 0.2499999999999999445 ) ) ;
#225 = CARTESIAN_POINT ( 'NONE',  ( -0.4749999999999999778, 0.5250000000000000222, -0.2249999999999999500 ) ) ;
#226 = EDGE_CURVE ( 'NONE', #1135, #436, #758, .T. ) ;
#227 = CYLINDRICAL_SURFACE ( 'NONE', #980, 0.02500000000000001180 ) ;
#228 = CYLINDRICAL_SURFACE ( 'NONE', #8, 0.02500000000000001180 ) ;
#229 = ORIENTED_EDGE ( 'NONE', *, *, #653, .T. ) ;
#230 = CIRCLE ( 'NONE', #629, 0.01666666666666667337 ) ;
#231 = CARTESIAN_POINT ( 'NONE',  ( -0.4749999999999998668, 0.02499999999999995628, 0.2499999999999999445 ) ) ;
#232 = CIRCLE ( 'NONE', #250, 0.02500000000000001180 ) ;
#233 = VECTOR ( 'NONE', #80, 1000.000000000000000 ) ;
#234 = CARTESIAN_POINT ( 'NONE',  ( 500000.0000000000582, 0.02499999999999995628, 0.2249999999566318354 ) ) ;
#235 = CARTESIAN_POINT ( 'NONE',  ( 0.000000000000000000, 0.5250000000000000222, 0.2249999999999999500 ) ) ;
#236 = FACE_OUTER_BOUND ( 'NONE', #1150, .T. ) ;
#237 = VERTEX_POINT ( 'NONE', #841 ) ;
#238 = CARTESIAN_POINT ( 'NONE',  ( 0.1999999999999999278, 0.5250000000000000222, 0.2499999999999999445 ) ) ;
#239 = DIRECTION ( 'NONE',  ( 0.000000000000000000, -1.000000000000000000, 0.000000000000000000 ) ) ;
#240 = CARTESIAN_POINT ( 'NONE',  ( -0.4749999999999999778, 0.5500000000000000444, -0.2249999999999999500 ) ) ;
#241 = AXIS2_PLACEMENT_3D ( 'NONE', #580, #188, #985 ) ;
#242 = DIRECTION ( 'NONE',  ( 0.000000000000000000, 1.000000000000000000, 0.000000000000000000 ) ) ;
#243 = VERTEX_POINT ( 'NONE', #533 ) ;
#244 = LINE ( 'NONE', #727, #671 ) ;
#245 = CYLINDRICAL_SURFACE ( 'NONE', #1059, 0.02500000000000001180 ) ;
#246 = DIRECTION ( 'NONE',  ( 0.000000000000000000, -1.000000000000000000, 0.000000000000000000 ) ) ;
#247 = VERTEX_POINT ( 'NONE', #519 ) ;
#248 = ORIENTED_EDGE ( 'NONE', *, *, #1169, .T. ) ;
#249 = VECTOR ( 'NONE', #394, 1000.000000000000000 ) ;
#250 = AXIS2_PLACEMENT_3D ( 'NONE', #923, #13, #828 ) ;
#251 = CARTESIAN_POINT ( 'NONE',  ( 0.4749999999999999778, 0.5500000000000000444, -0.2499999999999999445 ) ) ;
#252 = CARTESIAN_POINT ( 'NONE',  ( -0.1999999999999999278, 0.008333333333333296788, 0.2249999999999999500 ) ) ;
#253 = PRODUCT_DEFINITION_FORMATION_WITH_SPECIFIED_SOURCE ( 'ANY', '', #475, .NOT_KNOWN. ) ;
#254 = VERTEX_POINT ( 'NONE', #238 ) ;
#255 = VERTEX_POINT ( 'NONE', #939 ) ;
#256 = ADVANCED_FACE ( 'NONE', ( #50 ), #819, .F. ) ;
#257 = LINE ( 'NONE', #649, #999 ) ;
#258 = EDGE_CURVE ( 'NONE', #335, #247, #1142, .T. ) ;
#259 = VERTEX_POINT ( 'NONE', #144 ) ;
#260 = VERTEX_POINT ( 'NONE', #1206 ) ;
#261 = EDGE_CURVE ( 'NONE', #1233, #640, #230, .T. ) ;
#262 = DIRECTION ( 'NONE',  ( 0.000000000000000000, 0.000000000000000000, 1.000000000000000000 ) ) ;
#263 = EDGE_CURVE ( 'NONE', #1049, #1233, #45, .T. ) ;
#264 = LINE ( 'NONE', #48, #672 ) ;
#265 = ORIENTED_EDGE ( 'NONE', *, *, #687, .F. ) ;
#266 = ORIENTED_EDGE ( 'NONE', *, *, #1258, .T. ) ;
#267 = AXIS2_PLACEMENT_3D ( 'NONE', #546, #139, #352 ) ;
#268 = DIRECTION ( 'NONE',  ( 0.000000000000000000, 0.000000000000000000, -1.000000000000000000 ) ) ;
#269 = EDGE_LOOP ( 'NONE', ( #762, #1048, #573, #579 ) ) ;
#270 = ORIENTED_EDGE ( 'NONE', *, *, #1139, .T. ) ;
#271 = EDGE_CURVE ( 'NONE', #335, #434, #314, .T. ) ;
#272 = DIRECTION ( 'NONE',  ( 1.000000000000000000, 0.000000000000000000, 0.000000000000000000 ) ) ;
#273 = EDGE_CURVE ( 'NONE', #1164, #1260, #1130, .T. ) ;
#274 = DIRECTION ( 'NONE',  ( -1.000000000000000000, 0.000000000000000000, 2.168404344971009854E-16 ) ) ;
#275 = ORIENTED_EDGE ( 'NONE', *, *, #653, .F. ) ;
#276 = LINE ( 'NONE', #686, #65 ) ;
#277 = DIRECTION ( 'NONE',  ( 0.000000000000000000, 0.000000000000000000, 1.000000000000000000 ) ) ;
#278 = CARTESIAN_POINT ( 'NONE',  ( 0.1999999999999999278, 0.5250000000000000222, 0.2249999999999999500 ) ) ;
#279 = CARTESIAN_POINT ( 'NONE',  ( -0.1999999999999999278, 0.02499999999999995628, 0.2249999999999999500 ) ) ;
#280 = ORIENTED_EDGE ( 'NONE', *, *, #1155, .F. ) ;
#281 = DIRECTION ( 'NONE',  ( -0.000000000000000000, 1.000000000000000000, -0.000000000000000000 ) ) ;
#282 = PLANE ( 'NONE',  #53 ) ;
#283 = AXIS2_PLACEMENT_3D ( 'NONE', #142, #299, #16 ) ;
#284 = VECTOR ( 'NONE', #724, 1000.000000000000000 ) ;
#285 = AXIS2_PLACEMENT_3D ( 'NONE', #913, #622, #26 ) ;
#286 = DIRECTION ( 'NONE',  ( 0.000000000000000000, 0.000000000000000000, 1.000000000000000000 ) ) ;
#287 = ORIENTED_EDGE ( 'NONE', *, *, #59, .T. ) ;
#288 = DIRECTION ( 'NONE',  ( 0.000000000000000000, 0.000000000000000000, 1.000000000000000000 ) ) ;
#289 = FILL_AREA_STYLE ('',( #798 ) ) ;
#290 = DIRECTION ( 'NONE',  ( 0.000000000000000000, 0.000000000000000000, -1.000000000000000000 ) ) ;
#291 = LINE ( 'NONE', #795, #630 ) ;
#292 = ORIENTED_EDGE ( 'NONE', *, *, #119, .F. ) ;
#293 = EDGE_CURVE ( 'NONE', #888, #640, #244, .T. ) ;
#294 = DIRECTION ( 'NONE',  ( 0.000000000000000000, 0.000000000000000000, 1.000000000000000000 ) ) ;
#295 = APPLICATION_CONTEXT ( 'automotive_design' ) ;
#296 = DIRECTION ( 'NONE',  ( 1.000000000000000000, 0.000000000000000000, -8.673617379884036705E-17 ) ) ;
#297 = EDGE_LOOP ( 'NONE', ( #275, #968, #122 ) ) ;
#298 = DIRECTION ( 'NONE',  ( 1.000000000000000000, -0.000000000000000000, 0.000000000000000000 ) ) ;
#299 = DIRECTION ( 'NONE',  ( -1.000000000000000000, 0.000000000000000000, 0.000000000000000000 ) ) ;
#300 = ORIENTED_EDGE ( 'NONE', *, *, #15, .T. ) ;
#301 = CARTESIAN_POINT ( 'NONE',  ( 0.000000000000000000, 0.5500000000000000444, 0.000000000000000000 ) ) ;
#302 = CIRCLE ( 'NONE', #1222, 0.02500000000000001180 ) ;
#303 = CARTESIAN_POINT ( 'NONE',  ( 0.4749999999999999778, 0.5250000000000000222, -0.2249999999999999500 ) ) ;
#304 = DIRECTION ( 'NONE',  ( 0.000000000000000000, -1.000000000000000000, 0.000000000000000000 ) ) ;
#305 = VERTEX_POINT ( 'NONE', #721 ) ;
#306 = AXIS2_PLACEMENT_3D ( 'NONE', #966, #1172, #286 ) ;
#307 = DIRECTION ( 'NONE',  ( 2.168404344971009361E-16, -0.000000000000000000, -1.000000000000000000 ) ) ;
#308 = EDGE_CURVE ( 'NONE', #684, #100, #151, .T. ) ;
#309 = ADVANCED_FACE ( 'NONE', ( #416 ), #920, .F. ) ;
#310 = PLANE ( 'NONE',  #737 ) ;
#311 = CARTESIAN_POINT ( 'NONE',  ( 0.4999999999999998890, 0.5500000000000000444, 0.2249999999999999500 ) ) ;
#312 = DIRECTION ( 'NONE',  ( 0.000000000000000000, 0.000000000000000000, -1.000000000000000000 ) ) ;
#313 = EDGE_LOOP ( 'NONE', ( #949, #918, #181, #944 ) ) ;
#314 = LINE ( 'NONE', #1228, #772 ) ;
#315 = VECTOR ( 'NONE', #281, 1000.000000000000000 ) ;
#316 = DIRECTION ( 'NONE',  ( 0.000000000000000000, 1.000000000000000000, 0.000000000000000000 ) ) ;
#317 = STYLED_ITEM ( 'NONE', ( #615 ), #441 ) ;
#318 = VERTEX_POINT ( 'NONE', #231 ) ;
#319 = DIRECTION ( 'NONE',  ( 2.168404344971009361E-16, -0.000000000000000000, 1.000000000000000000 ) ) ;
#320 = ORIENTED_EDGE ( 'NONE', *, *, #820, .T. ) ;
#321 = CLOSED_SHELL ( 'NONE', ( #1244, #556, #992, #1123, #326, #692, #223, #779, #391, #810, #1220, #916, #1214, #636, #1274, #138, #748, #362 ) ) ;
#322 = DIRECTION ( 'NONE',  ( 0.000000000000000000, 0.000000000000000000, 1.000000000000000000 ) ) ;
#323 = DIRECTION ( 'NONE',  ( 0.000000000000000000, 0.000000000000000000, 1.000000000000000000 ) ) ;
#324 = DIRECTION ( 'NONE',  ( 0.000000000000000000, 1.000000000000000000, 0.000000000000000000 ) ) ;
#325 = CARTESIAN_POINT ( 'NONE',  ( 0.2000000000066393113, 0.5416666666666667407, 0.2249999999999998945 ) ) ;
#326 = ADVANCED_FACE ( 'NONE', ( #129 ), #927, .T. ) ;
#327 = EDGE_LOOP ( 'NONE', ( #1265, #1278, #967, #418 ) ) ;
#328 = VECTOR ( 'NONE', #538, 1000.000000000000000 ) ;
#329 = FACE_OUTER_BOUND ( 'NONE', #478, .T. ) ;
#330 = VECTOR ( 'NONE', #432, 1000.000000000000000 ) ;
#331 = MECHANICAL_DESIGN_GEOMETRIC_PRESENTATION_REPRESENTATION (  '', ( #1118 ), #137 ) ;
#332 = CARTESIAN_POINT ( 'NONE',  ( -0.1999999999999999833, 0.5250000000000000222, -0.2249999999999999500 ) ) ;
#333 = CARTESIAN_POINT ( 'NONE',  ( 500000.0000000000582, 0.02499999999999995628, -0.2416666667100346721 ) ) ;
#334 = DIRECTION ( 'NONE',  ( 1.000000000000000000, -0.000000000000000000, -0.000000000000000000 ) ) ;
#335 = VERTEX_POINT ( 'NONE', #635 ) ;
#336 = CARTESIAN_POINT ( 'NONE',  ( 0.000000000000000000, 0.5250000000000000222, 0.2249999999999999500 ) ) ;
#337 = DIRECTION ( 'NONE',  ( 0.000000000000000000, 0.000000000000000000, 1.000000000000000000 ) ) ;
#338 = FACE_OUTER_BOUND ( 'NONE', #1205, .T. ) ;
#339 = APPLICATION_CONTEXT ( 'automotive_design' ) ;
#340 = FILL_AREA_STYLE ('',( #937 ) ) ;
#341 = ORIENTED_EDGE ( 'NONE', *, *, #351, .F. ) ;
#342 = VERTEX_POINT ( 'NONE', #1028 ) ;
#343 = DIRECTION ( 'NONE',  ( 1.000000000000000000, -0.000000000000000000, -0.000000000000000000 ) ) ;
#344 = DIRECTION ( 'NONE',  ( 0.000000000000000000, 0.000000000000000000, -1.000000000000000000 ) ) ;
#345 = LINE ( 'NONE', #837, #1117 ) ;
#346 = ORIENTED_EDGE ( 'NONE', *, *, #648, .T. ) ;
#347 = EDGE_CURVE ( 'NONE', #29, #387, #205, .T. ) ;
#348 = VERTEX_POINT ( 'NONE', #725 ) ;
#349 = VECTOR ( 'NONE', #512, 1000.000000000000000 ) ;
#350 = EDGE_CURVE ( 'NONE', #1114, #1145, #925, .T. ) ;
#351 = EDGE_CURVE ( 'NONE', #852, #237, #830, .T. ) ;
#352 = DIRECTION ( 'NONE',  ( 0.000000000000000000, 0.000000000000000000, -1.000000000000000000 ) ) ;
#353 = PRESENTATION_STYLE_ASSIGNMENT (( #446 ) ) ;
#354 = ORIENTED_EDGE ( 'NONE', *, *, #1017, .F. ) ;
#355 = ORIENTED_EDGE ( 'NONE', *, *, #1193, .T. ) ;
#356 =( NAMED_UNIT ( * ) PLANE_ANGLE_UNIT ( ) SI_UNIT ( $, .RADIAN. ) );
#357 = VERTEX_POINT ( 'NONE', #325 ) ;
#358 = CIRCLE ( 'NONE', #141, 0.02500000000000001180 ) ;
#359 = EDGE_LOOP ( 'NONE', ( #346, #1271, #666, #1027 ) ) ;
#360 = DIRECTION ( 'NONE',  ( 0.000000000000000000, 0.000000000000000000, -1.000000000000000000 ) ) ;
#361 = ORIENTED_EDGE ( 'NONE', *, *, #1138, .T. ) ;
#362 = ADVANCED_FACE ( 'NONE', ( #1121 ), #1031, .T. ) ;
#363 = ORIENTED_EDGE ( 'NONE', *, *, #1046, .T. ) ;
#364 = VECTOR ( 'NONE', #1113, 1000.000000000000000 ) ;
#365 = AXIS2_PLACEMENT_3D ( 'NONE', #103, #801, #1089 ) ;
#366 = CYLINDRICAL_SURFACE ( 'NONE', #131, 0.02499999999999995628 ) ;
#367 = VERTEX_POINT ( 'NONE', #43 ) ;
#368 = PRESENTATION_STYLE_ASSIGNMENT (( #1159 ) ) ;
#369 = DIRECTION ( 'NONE',  ( -1.000000000000000000, 0.000000000000000000, 0.000000000000000000 ) ) ;
#370 = EDGE_LOOP ( 'NONE', ( #739, #954, #49 ) ) ;
#371 = CARTESIAN_POINT ( 'NONE',  ( 0.1999999999999999833, 0.5250000000000000222, -0.2499999999999999445 ) ) ;
#372 = DIRECTION ( 'NONE',  ( 0.000000000000000000, -1.000000000000000000, 0.000000000000000000 ) ) ;
#373 = FACE_OUTER_BOUND ( 'NONE', #1066, .T. ) ;
#374 = FACE_OUTER_BOUND ( 'NONE', #1005, .T. ) ;
#375 = ORIENTED_EDGE ( 'NONE', *, *, #1080, .F. ) ;
#376 = DIRECTION ( 'NONE',  ( 1.000000000000000000, 0.000000000000000000, 0.000000000000000000 ) ) ;
#377 = DIRECTION ( 'NONE',  ( -5.877471754111437540E-33, -1.000000000000000000, 5.421010862427520937E-17 ) ) ;
#378 = VERTEX_POINT ( 'NONE', #1218 ) ;
#379 = UNCERTAINTY_MEASURE_WITH_UNIT (LENGTH_MEASURE( 1.000000000000000082E-05 ), #443, 'distance_accuracy_value', 'NONE');
#380 = EDGE_CURVE ( 'NONE', #387, #255, #824, .T. ) ;
#381 = FACE_OUTER_BOUND ( 'NONE', #1255, .T. ) ;
#382 = EDGE_CURVE ( 'NONE', #335, #69, #854, .T. ) ;
#383 = CARTESIAN_POINT ( 'NONE',  ( -0.1999999999999999278, 0.5500000000000000444, 0.2499999999999999445 ) ) ;
#384 = VECTOR ( 'NONE', #1102, 1000.000000000000000 ) ;
#385 = DIRECTION ( 'NONE',  ( 1.000000000000000000, 0.000000000000000000, 0.000000000000000000 ) ) ;
#386 = FACE_OUTER_BOUND ( 'NONE', #1053, .T. ) ;
#387 = VERTEX_POINT ( 'NONE', #1204 ) ;
#388 = COLOUR_RGB ( '',0.4862745098039215619, 0.2352941176470588203, 0.01568627450980392135 ) ;
#389 = PLANE ( 'NONE',  #1084 ) ;
#390 = CARTESIAN_POINT ( 'NONE',  ( -0.4999999999999998890, 0.5250000000000000222, 0.2499999999999999445 ) ) ;
#391 = ADVANCED_FACE ( 'NONE', ( #236 ), #808, .T. ) ;
#392 = DIRECTION ( 'NONE',  ( -0.000000000000000000, 1.000000000000000000, -0.000000000000000000 ) ) ;
#393 = CARTESIAN_POINT ( 'NONE',  ( 0.000000000000000000, 0.000000000000000000, 0.000000000000000000 ) ) ;
#394 = DIRECTION ( 'NONE',  ( -1.000000000000000000, -0.000000000000000000, 8.673617379884036705E-17 ) ) ;
#395 = LINE ( 'NONE', #701, #217 ) ;
#396 = DIRECTION ( 'NONE',  ( 1.000000000000000000, 0.000000000000000000, 1.084202172485504681E-16 ) ) ;
#397 = EDGE_CURVE ( 'NONE', #885, #852, #1263, .T. ) ;
#398 = AXIS2_PLACEMENT_3D ( 'NONE', #1086, #1012, #120 ) ;
#399 = CARTESIAN_POINT ( 'NONE',  ( 0.4749999999999998668, 0.5250000000000000222, 0.2249999999999999500 ) ) ;
#400 = VERTEX_POINT ( 'NONE', #419 ) ;
#401 = CARTESIAN_POINT ( 'NONE',  ( -0.1999999999999999833, 0.02499999999999995628, -0.2416666666666665575 ) ) ;
#402 = DIRECTION ( 'NONE',  ( -1.000000000000000000, 0.000000000000000000, 0.000000000000000000 ) ) ;
#403 = VERTEX_POINT ( 'NONE', #613 ) ;
#404 = EDGE_CURVE ( 'NONE', #182, #461, #719, .T. ) ;
#405 = DIRECTION ( 'NONE',  ( 1.000000000000000000, -0.000000000000000000, 0.000000000000000000 ) ) ;
#406 = CARTESIAN_POINT ( 'NONE',  ( 0.5000000000000000000, 0.5250000000000000222, -0.2499999999999999445 ) ) ;
#407 = CARTESIAN_POINT ( 'NONE',  ( -0.4749999999999999778, 0.02499999999999995628, -0.2499999999999999445 ) ) ;
#408 = EDGE_LOOP ( 'NONE', ( #78, #839, #457, #710 ) ) ;
#409 = AXIS2_PLACEMENT_3D ( 'NONE', #1207, #1024, #627 ) ;
#410 = CARTESIAN_POINT ( 'NONE',  ( -0.4999999999999998890, 0.02499999999999995628, 0.2249999999999999500 ) ) ;
#411 = CARTESIAN_POINT ( 'NONE',  ( -0.1999999999999999833, 0.5500000000000000444, -0.2249999999999999500 ) ) ;
#412 = EDGE_LOOP ( 'NONE', ( #655, #678, #850, #14, #676, #713, #1173, #946 ) ) ;
#413 = CARTESIAN_POINT ( 'NONE',  ( 0.4999999999999998890, 0.5250000000000000222, 0.2499999999999999445 ) ) ;
#414 = FACE_OUTER_BOUND ( 'NONE', #1070, .T. ) ;
#415 = ORIENTED_EDGE ( 'NONE', *, *, #823, .T. ) ;
#416 = FACE_OUTER_BOUND ( 'NONE', #1044, .T. ) ;
#417 = AXIS2_PLACEMENT_3D ( 'NONE', #612, #601, #9 ) ;
#418 = ORIENTED_EDGE ( 'NONE', *, *, #459, .T. ) ;
#419 = CARTESIAN_POINT ( 'NONE',  ( -0.4749999999999999778, 0.000000000000000000, -0.2249999999999999500 ) ) ;
#420 = CIRCLE ( 'NONE', #241, 0.02500000000000001180 ) ;
#421 = ORIENTED_EDGE ( 'NONE', *, *, #1238, .F. ) ;
#422 = CYLINDRICAL_SURFACE ( 'NONE', #998, 0.02500000000000001180 ) ;
#423 = ADVANCED_FACE ( 'NONE', ( #221 ), #228, .T. ) ;
#424 = DIRECTION ( 'NONE',  ( 0.000000000000000000, -1.000000000000000000, 0.000000000000000000 ) ) ;
#425 = CARTESIAN_POINT ( 'NONE',  ( 0.4749999999999998668, 0.5250000000000000222, 0.2499999999999999445 ) ) ;
#426 = DIRECTION ( 'NONE',  ( 1.000000000000000000, -0.000000000000000000, -0.000000000000000000 ) ) ;
#427 = ORIENTED_EDGE ( 'NONE', *, *, #165, .T. ) ;
#428 = DIRECTION ( 'NONE',  ( -1.000000000000000000, -0.000000000000000000, -0.000000000000000000 ) ) ;
#429 = MECHANICAL_DESIGN_GEOMETRIC_PRESENTATION_REPRESENTATION (  '', ( #813 ), #32 ) ;
#430 = AXIS2_PLACEMENT_3D ( 'NONE', #301, #324, #40 ) ;
#431 = CIRCLE ( 'NONE', #673, 0.01666666666666667337 ) ;
#432 = DIRECTION ( 'NONE',  ( 1.084202172485504681E-16, -0.000000000000000000, -1.000000000000000000 ) ) ;
#433 = CARTESIAN_POINT ( 'NONE',  ( 0.2000000000066393113, 0.02499999999999995628, 0.2416666666666665853 ) ) ;
#434 = VERTEX_POINT ( 'NONE', #624 ) ;
#435 = EDGE_CURVE ( 'NONE', #378, #186, #712, .T. ) ;
#436 = VERTEX_POINT ( 'NONE', #1197 ) ;
#437 = EDGE_CURVE ( 'NONE', #1147, #29, #503, .T. ) ;
#438 = FACE_OUTER_BOUND ( 'NONE', #1158, .T. ) ;
#439 = FACE_OUTER_BOUND ( 'NONE', #472, .T. ) ;
#440 = VECTOR ( 'NONE', #1179, 1000.000000000000000 ) ;
#441 = ADVANCED_BREP_SHAPE_REPRESENTATION ( 'KEMET_X7R_C0402CBB', ( #965, #536, #971, #90 ), #1188 ) ;
#442 = ORIENTED_EDGE ( 'NONE', *, *, #780, .F. ) ;
#443 =( LENGTH_UNIT ( ) NAMED_UNIT ( * ) SI_UNIT ( .MILLI., .METRE. ) );
#444 = EDGE_LOOP ( 'NONE', ( #950, #962, #229, #901 ) ) ;
#445 = FACE_OUTER_BOUND ( 'NONE', #37, .T. ) ;
#446 = SURFACE_STYLE_USAGE ( .BOTH. , #67 ) ;
#447 = ORIENTED_EDGE ( 'NONE', *, *, #838, .F. ) ;
#448 = CIRCLE ( 'NONE', #654, 0.01666666666666662133 ) ;
#449 = ORIENTED_EDGE ( 'NONE', *, *, #1101, .F. ) ;
#450 = EDGE_CURVE ( 'NONE', #186, #318, #736, .T. ) ;
#451 = VECTOR ( 'NONE', #114, 1000.000000000000000 ) ;
#452 = AXIS2_PLACEMENT_3D ( 'NONE', #393, #316, #323 ) ;
#453 = VECTOR ( 'NONE', #1239, 1000.000000000000000 ) ;
#454 = CYLINDRICAL_SURFACE ( 'NONE', #896, 0.01666666666666664562 ) ;
#455 = CARTESIAN_POINT ( 'NONE',  ( 0.5000000000000000000, 0.02499999999999995628, -0.2499999999999999445 ) ) ;
#456 = ORIENTED_EDGE ( 'NONE', *, *, #1080, .T. ) ;
#457 = ORIENTED_EDGE ( 'NONE', *, *, #450, .F. ) ;
#458 = CARTESIAN_POINT ( 'NONE',  ( 0.000000000000000000, 0.5250000000000000222, -0.2249999999999999500 ) ) ;
#459 = EDGE_CURVE ( 'NONE', #255, #1135, #214, .T. ) ;
#460 = CYLINDRICAL_SURFACE ( 'NONE', #1266, 0.02500000000000001180 ) ;
#461 = VERTEX_POINT ( 'NONE', #510 ) ;
#462 = AXIS2_PLACEMENT_3D ( 'NONE', #1189, #902, #288 ) ;
#463 = ORIENTED_EDGE ( 'NONE', *, *, #821, .F. ) ;
#464 = FACE_OUTER_BOUND ( 'NONE', #761, .T. ) ;
#465 = DIRECTION ( 'NONE',  ( 1.000000000000000000, -0.000000000000000000, -1.084202172485504681E-16 ) ) ;
#466 = VERTEX_POINT ( 'NONE', #917 ) ;
#467 = AXIS2_PLACEMENT_3D ( 'NONE', #61, #1141, #1226 ) ;
#468 = CARTESIAN_POINT ( 'NONE',  ( 0.4749999999999999778, 0.02499999999999995628, -0.2249999999999999500 ) ) ;
#469 = DIRECTION ( 'NONE',  ( 1.000000000000000000, -0.000000000000000000, -1.084202172485504681E-16 ) ) ;
#470 = AXIS2_PLACEMENT_3D ( 'NONE', #1270, #268, #1072 ) ;
#471 = FACE_OUTER_BOUND ( 'NONE', #156, .T. ) ;
#472 = EDGE_LOOP ( 'NONE', ( #172, #68, #292 ) ) ;
#473 = PLANE ( 'NONE',  #662 ) ;
#474 = ADVANCED_FACE ( 'NONE', ( #414 ), #126, .T. ) ;
#475 = PRODUCT ( 'KEMET_X7R_C0402CBB', 'KEMET_X7R_C0402CBB', '', ( #1006 ) ) ;
#476 = CARTESIAN_POINT ( 'NONE',  ( -0.1999999999999999278, 0.5500000000000000444, 0.2249999999999999500 ) ) ;
#477 = EDGE_CURVE ( 'NONE', #260, #85, #522, .T. ) ;
#478 = EDGE_LOOP ( 'NONE', ( #638, #248, #1109, #704 ) ) ;
#479 = CARTESIAN_POINT ( 'NONE',  ( -0.1999999999999999278, 0.5250000000000000222, 0.2249999999999999500 ) ) ;
#480 = CARTESIAN_POINT ( 'NONE',  ( 0.4749999999999998668, 0.5500000000000000444, 0.2499999999999999445 ) ) ;
#481 = EDGE_CURVE ( 'NONE', #1114, #403, #1056, .T. ) ;
#482 =( LENGTH_UNIT ( ) NAMED_UNIT ( * ) SI_UNIT ( .MILLI., .METRE. ) );
#483 = CARTESIAN_POINT ( 'NONE',  ( -0.4749999999999998668, 0.5250000000000000222, 0.2249999999999999500 ) ) ;
#484 = EDGE_CURVE ( 'NONE', #17, #403, #879, .T. ) ;
#485 = CARTESIAN_POINT ( 'NONE',  ( 0.1999999999999999833, 0.02499999999999995628, -0.2499999999999999445 ) ) ;
#486 = DIRECTION ( 'NONE',  ( 0.000000000000000000, 0.000000000000000000, -1.000000000000000000 ) ) ;
#487 = ORIENTED_EDGE ( 'NONE', *, *, #634, .T. ) ;
#488 = CARTESIAN_POINT ( 'NONE',  ( -0.1999999999999999833, 0.000000000000000000, -0.2249999999999999500 ) ) ;
#489 = FACE_OUTER_BOUND ( 'NONE', #1243, .T. ) ;
#490 = UNCERTAINTY_MEASURE_WITH_UNIT (LENGTH_MEASURE( 1.000000000000000082E-05 ), #482, 'distance_accuracy_value', 'NONE');
#491 = PLANE ( 'NONE',  #195 ) ;
#492 = AXIS2_PLACEMENT_3D ( 'NONE', #1128, #149, #163 ) ;
#493 = AXIS2_PLACEMENT_3D ( 'NONE', #1051, #153, #862 ) ;
#494 = PLANE ( 'NONE',  #961 ) ;
#495 = ORIENTED_EDGE ( 'NONE', *, *, #765, .T. ) ;
#496 = CIRCLE ( 'NONE', #898, 0.02500000000000001180 ) ;
#497 = PRESENTATION_STYLE_ASSIGNMENT (( #1176 ) ) ;
#498 = CARTESIAN_POINT ( 'NONE',  ( 0.000000000000000000, 0.000000000000000000, 0.000000000000000000 ) ) ;
#499 = EDGE_CURVE ( 'NONE', #434, #1145, #697, .T. ) ;
#500 = FACE_OUTER_BOUND ( 'NONE', #327, .T. ) ;
#501 = CARTESIAN_POINT ( 'NONE',  ( -0.1999999999999999833, 0.5500000000000000444, -0.2499999999999999445 ) ) ;
#502 = DIRECTION ( 'NONE',  ( 0.000000000000000000, 0.000000000000000000, 1.000000000000000000 ) ) ;
#503 = LINE ( 'NONE', #909, #384 ) ;
#504 = EDGE_LOOP ( 'NONE', ( #871, #495, #688, #79 ) ) ;
#505 = ADVANCED_FACE ( 'NONE', ( #1241 ), #1232, .T. ) ;
#506 = CIRCLE ( 'NONE', #951, 0.01666666666666667337 ) ;
#507 = SPHERICAL_SURFACE ( 'NONE', #707, 0.02500000000000000139 ) ;
#508 = PLANE ( 'NONE',  #285 ) ;
#509 = LINE ( 'NONE', #406, #147 ) ;
#510 = CARTESIAN_POINT ( 'NONE',  ( -0.1999999999999999833, 0.008333333333333333218, -0.2249999999999999500 ) ) ;
#511 = ORIENTED_EDGE ( 'NONE', *, *, #88, .T. ) ;
#512 = DIRECTION ( 'NONE',  ( -1.000000000000000000, 0.000000000000000000, 0.000000000000000000 ) ) ;
#513 = ORIENTED_EDGE ( 'NONE', *, *, #165, .F. ) ;
#514 = AXIS2_PLACEMENT_3D ( 'NONE', #822, #1112, #20 ) ;
#515 = VECTOR ( 'NONE', #319, 1000.000000000000000 ) ;
#516 = CARTESIAN_POINT ( 'NONE',  ( 500000.0000000000582, 0.5250000000000000222, 0.2249999999566318354 ) ) ;
#517 = ORIENTED_EDGE ( 'NONE', *, *, #526, .F. ) ;
#518 = VECTOR ( 'NONE', #33, 1000.000000000000000 ) ;
#519 = CARTESIAN_POINT ( 'NONE',  ( 0.4749999999999998668, 0.02499999999999995628, 0.2499999999999999445 ) ) ;
#520 = CARTESIAN_POINT ( 'NONE',  ( -0.1999999999999999833, 0.5416666666666667407, -0.2249999999999999500 ) ) ;
#521 = VERTEX_POINT ( 'NONE', #953 ) ;
#522 = LINE ( 'NONE', #658, #328 ) ;
#523 = EDGE_LOOP ( 'NONE', ( #562, #1156, #77 ) ) ;
#524 = DIRECTION ( 'NONE',  ( 0.000000000000000000, 0.000000000000000000, -1.000000000000000000 ) ) ;
#525 = EDGE_CURVE ( 'NONE', #247, #885, #345, .T. ) ;
#526 = EDGE_CURVE ( 'NONE', #1145, #69, #158, .T. ) ;
#527 = CIRCLE ( 'NONE', #462, 0.02500000000000001180 ) ;
#528 = LINE ( 'NONE', #251, #453 ) ;
#529 = CARTESIAN_POINT ( 'NONE',  ( -0.4749999999999999778, 0.02499999999999995628, -0.2499999999999999445 ) ) ;
#530 = EDGE_CURVE ( 'NONE', #403, #974, #1144, .T. ) ;
#531 = DIRECTION ( 'NONE',  ( 0.000000000000000000, -1.000000000000000000, -0.000000000000000000 ) ) ;
#532 = ORIENTED_EDGE ( 'NONE', *, *, #549, .T. ) ;
#533 = CARTESIAN_POINT ( 'NONE',  ( -0.1999999999999999278, 0.5250000000000000222, 0.2499999999999999445 ) ) ;
#534 = CLOSED_SHELL ( 'NONE', ( #669, #256, #722, #906, #39, #309, #1, #957, #211, #1015, #125, #91, #604, #423, #603, #505, #816, #102 ) ) ;
#535 = FACE_OUTER_BOUND ( 'NONE', #539, .T. ) ;
#536 = MANIFOLD_SOLID_BREP ( 'Mirror2', #321 ) ;
#537 = CARTESIAN_POINT ( 'NONE',  ( 0.4749999999999999778, 0.5250000000000000222, -0.2249999999999999500 ) ) ;
#538 = DIRECTION ( 'NONE',  ( 1.084202172485504804E-16, 0.000000000000000000, -1.000000000000000000 ) ) ;
#539 = EDGE_LOOP ( 'NONE', ( #463, #456, #668, #513 ) ) ;
#540 = PRODUCT_DEFINITION ( 'UNKNOWN', '', #253, #1125 ) ;
#541 = AXIS2_PLACEMENT_3D ( 'NONE', #73, #242, #1057 ) ;
#542 = FILL_AREA_STYLE ('',( #1043 ) ) ;
#543 = DIRECTION ( 'NONE',  ( 1.000000000000000000, -0.000000000000000000, 0.000000000000000000 ) ) ;
#544 = VECTOR ( 'NONE', #1277, 1000.000000000000000 ) ;
#545 = AXIS2_PLACEMENT_3D ( 'NONE', #575, #465, #1276 ) ;
#546 = CARTESIAN_POINT ( 'NONE',  ( 0.2000000000066393113, 0.02499999999999995628, 0.2249999999999998945 ) ) ;
#547 = CARTESIAN_POINT ( 'NONE',  ( -0.1999999999999999278, 0.5250000000000000222, 0.2416666666666666130 ) ) ;
#548 = EDGE_CURVE ( 'NONE', #974, #1187, #664, .T. ) ;
#549 = EDGE_CURVE ( 'NONE', #400, #1082, #264, .T. ) ;
#550 = ORIENTED_EDGE ( 'NONE', *, *, #934, .F. ) ;
#551 = DIRECTION ( 'NONE',  ( 0.000000000000000000, 0.000000000000000000, 1.000000000000000000 ) ) ;
#552 = VERTEX_POINT ( 'NONE', #651 ) ;
#553 = EDGE_CURVE ( 'NONE', #640, #620, #943, .T. ) ;
#554 = FACE_OUTER_BOUND ( 'NONE', #1160, .T. ) ;
#555 = AXIS2_PLACEMENT_3D ( 'NONE', #899, #883, #1167 ) ;
#556 = ADVANCED_FACE ( 'NONE', ( #693 ), #99, .F. ) ;
#557 = DIRECTION ( 'NONE',  ( -1.000000000000000000, -0.000000000000000000, -0.000000000000000000 ) ) ;
#558 = ORIENTED_EDGE ( 'NONE', *, *, #258, .T. ) ;
#559 = ORIENTED_EDGE ( 'NONE', *, *, #590, .T. ) ;
#560 = DIRECTION ( 'NONE',  ( -1.000000000000000000, 0.000000000000000000, 0.000000000000000000 ) ) ;
#561 = DIRECTION ( 'NONE',  ( 1.000000000000000000, 0.000000000000000000, 0.000000000000000000 ) ) ;
#562 = ORIENTED_EDGE ( 'NONE', *, *, #258, .F. ) ;
#563 = ORIENTED_EDGE ( 'NONE', *, *, #263, .T. ) ;
#564 = AXIS2_PLACEMENT_3D ( 'NONE', #1213, #38, #322 ) ;
#565 = AXIS2_PLACEMENT_3D ( 'NONE', #675, #1264, #486 ) ;
#566 = AXIS2_PLACEMENT_3D ( 'NONE', #458, #698, #1063 ) ;
#567 = DIRECTION ( 'NONE',  ( 0.000000000000000000, 0.000000000000000000, 1.000000000000000000 ) ) ;
#568 = ORIENTED_EDGE ( 'NONE', *, *, #1190, .F. ) ;
#569 = ORIENTED_EDGE ( 'NONE', *, *, #549, .F. ) ;
#570 = CARTESIAN_POINT ( 'NONE',  ( -0.1999999999999999833, 0.5250000000000000222, -0.2416666666666665853 ) ) ;
#571 = DIRECTION ( 'NONE',  ( -1.000000000000000000, -0.000000000000000000, 8.673617379884036705E-17 ) ) ;
#572 = FACE_OUTER_BOUND ( 'NONE', #796, .T. ) ;
#573 = ORIENTED_EDGE ( 'NONE', *, *, #226, .F. ) ;
#574 = FILL_AREA_STYLE ('',( #890 ) ) ;
#575 = CARTESIAN_POINT ( 'NONE',  ( -0.1999999999999999833, 0.02499999999999995628, -0.2249999999999999500 ) ) ;
#576 = PRODUCT_DEFINITION_SHAPE ( 'NONE', 'NONE',  #540 ) ;
#577 = EDGE_CURVE ( 'NONE', #318, #255, #942, .T. ) ;
#578 = CARTESIAN_POINT ( 'NONE',  ( -0.4749999999999999223, 0.5250000000000000222, 1.029992063861229336E-16 ) ) ;
#579 = ORIENTED_EDGE ( 'NONE', *, *, #459, .F. ) ;
#580 = CARTESIAN_POINT ( 'NONE',  ( -0.4749999999999999778, 0.02500000000000000139, -0.2249999999999999500 ) ) ;
#581 = EDGE_CURVE ( 'NONE', #436, #318, #884, .T. ) ;
#582 = VECTOR ( 'NONE', #650, 1000.000000000000000 ) ;
#583 = DIRECTION ( 'NONE',  ( 0.000000000000000000, 0.000000000000000000, 1.000000000000000000 ) ) ;
#584 = AXIS2_PLACEMENT_3D ( 'NONE', #399, #805, #1099 ) ;
#585 = CARTESIAN_POINT ( 'NONE',  ( -0.5000000000000000000, 0.02499999999999995628, -0.2249999999999999500 ) ) ;
#586 = EDGE_LOOP ( 'NONE', ( #652, #750, #988, #777 ) ) ;
#587 = EDGE_CURVE ( 'NONE', #974, #1129, #1095, .T. ) ;
#588 = DIRECTION ( 'NONE',  ( -1.084202172485504681E-16, 0.000000000000000000, 1.000000000000000000 ) ) ;
#589 = ORIENTED_EDGE ( 'NONE', *, *, #530, .F. ) ;
#590 = EDGE_CURVE ( 'NONE', #305, #367, #108, .T. ) ;
#591 = LINE ( 'NONE', #991, #763 ) ;
#592 = DIRECTION ( 'NONE',  ( 0.000000000000000000, 0.000000000000000000, 1.000000000000000000 ) ) ;
#593 = ORIENTED_EDGE ( 'NONE', *, *, #1229, .F. ) ;
#594 = DIRECTION ( 'NONE',  ( 0.000000000000000000, -1.000000000000000000, 0.000000000000000000 ) ) ;
#595 = DIRECTION ( 'NONE',  ( 1.000000000000000000, 0.000000000000000000, 1.084202172485504681E-16 ) ) ;
#596 = ORIENTED_EDGE ( 'NONE', *, *, #934, .T. ) ;
#597 = CIRCLE ( 'NONE', #42, 0.02500000000000001180 ) ;
#598 = DIRECTION ( 'NONE',  ( 0.000000000000000000, 0.000000000000000000, -1.000000000000000000 ) ) ;
#599 = CARTESIAN_POINT ( 'NONE',  ( 0.2000000000066393113, 0.5416666666666667407, -0.2250000000975781456 ) ) ;
#600 = ORIENTED_EDGE ( 'NONE', *, *, #1146, .F. ) ;
#601 = DIRECTION ( 'NONE',  ( -1.000000000000000000, -0.000000000000000000, -0.000000000000000000 ) ) ;
#602 = SURFACE_SIDE_STYLE ('',( #1087 ) ) ;
#603 = ADVANCED_FACE ( 'NONE', ( #572 ), #972, .T. ) ;
#604 = ADVANCED_FACE ( 'NONE', ( #386 ), #366, .T. ) ;
#605 = VECTOR ( 'NONE', #743, 1000.000000000000000 ) ;
#606 = LINE ( 'NONE', #98, #986 ) ;
#607 = AXIS2_PLACEMENT_3D ( 'NONE', #756, #863, #561 ) ;
#608 = DIRECTION ( 'NONE',  ( -1.000000000000000000, 0.000000000000000000, 0.000000000000000000 ) ) ;
#609 = DIRECTION ( 'NONE',  ( 1.000000000000000000, 0.000000000000000000, -8.673617379884036705E-17 ) ) ;
#610 = EDGE_CURVE ( 'NONE', #259, #182, #656, .T. ) ;
#611 = AXIS2_PLACEMENT_3D ( 'NONE', #691, #1152, #262 ) ;
#612 = CARTESIAN_POINT ( 'NONE',  ( -0.4749999999999999778, 0.02499999999999995628, -0.2249999999999999500 ) ) ;
#613 = CARTESIAN_POINT ( 'NONE',  ( 0.4749999999999999778, 0.5250000000000000222, -0.2499999999999999445 ) ) ;
#614 = ORIENTED_EDGE ( 'NONE', *, *, #526, .T. ) ;
#615 = PRESENTATION_STYLE_ASSIGNMENT (( #110 ) ) ;
#616 = DIRECTION ( 'NONE',  ( 0.000000000000000000, 0.000000000000000000, 1.000000000000000000 ) ) ;
#617 = PLANE ( 'NONE',  #452 ) ;
#618 = CARTESIAN_POINT ( 'NONE',  ( 0.000000000000000000, 0.5250000000000000222, -0.2249999999999999500 ) ) ;
#619 = CARTESIAN_POINT ( 'NONE',  ( -0.4999999999999998890, 0.5500000000000000444, 0.2249999999999999500 ) ) ;
#620 = VERTEX_POINT ( 'NONE', #1163 ) ;
#621 = CARTESIAN_POINT ( 'NONE',  ( 0.4749999999999998668, 0.02500000000000000139, 0.2249999999999999500 ) ) ;
#622 = DIRECTION ( 'NONE',  ( -8.673617379884036705E-17, -5.421010862427520937E-17, -1.000000000000000000 ) ) ;
#623 = CARTESIAN_POINT ( 'NONE',  ( 0.4749999999999999778, 0.5500000000000000444, -0.2249999999999999500 ) ) ;
#624 = CARTESIAN_POINT ( 'NONE',  ( 0.4749999999999999778, 0.000000000000000000, -0.2249999999999999500 ) ) ;
#625 = ORIENTED_EDGE ( 'NONE', *, *, #919, .T. ) ;
#626 = DIRECTION ( 'NONE',  ( 0.000000000000000000, -0.000000000000000000, 1.000000000000000000 ) ) ;
#627 = DIRECTION ( 'NONE',  ( 0.000000000000000000, 0.000000000000000000, -1.000000000000000000 ) ) ;
#628 = DIRECTION ( 'NONE',  ( 1.000000000000000000, 0.000000000000000000, 0.000000000000000000 ) ) ;
#629 = AXIS2_PLACEMENT_3D ( 'NONE', #1016, #1034, #216 ) ;
#630 = VECTOR ( 'NONE', #682, 1000.000000000000000 ) ;
#631 = EDGE_CURVE ( 'NONE', #208, #247, #291, .T. ) ;
#632 = CARTESIAN_POINT ( 'NONE',  ( -0.4749999999999998668, 0.02500000000000000139, 0.2249999999999999500 ) ) ;
#633 = ORIENTED_EDGE ( 'NONE', *, *, #1132, .F. ) ;
#634 = EDGE_CURVE ( 'NONE', #260, #182, #94, .T. ) ;
#635 = CARTESIAN_POINT ( 'NONE',  ( 0.4749999999999998668, 0.000000000000000000, 0.2249999999999999500 ) ) ;
#636 = ADVANCED_FACE ( 'NONE', ( #374 ), #460, .T. ) ;
#637 = DIRECTION ( 'NONE',  ( 1.000000000000000000, -0.000000000000000000, -0.000000000000000000 ) ) ;
#638 = ORIENTED_EDGE ( 'NONE', *, *, #1215, .T. ) ;
#639 = CARTESIAN_POINT ( 'NONE',  ( 0.5000000000000000000, 0.5500000000000000444, -0.2249999999999999500 ) ) ;
#640 = VERTEX_POINT ( 'NONE', #520 ) ;
#641 = DIRECTION ( 'NONE',  ( 0.000000000000000000, 0.000000000000000000, 1.000000000000000000 ) ) ;
#642 = CIRCLE ( 'NONE', #398, 0.02500000000000001180 ) ;
#643 = FACE_OUTER_BOUND ( 'NONE', #444, .T. ) ;
#644 = DIRECTION ( 'NONE',  ( 0.000000000000000000, -1.000000000000000000, 0.000000000000000000 ) ) ;
#645 = ORIENTED_EDGE ( 'NONE', *, *, #202, .T. ) ;
#646 = DIRECTION ( 'NONE',  ( -1.000000000000000000, -0.000000000000000000, 8.673617379884036705E-17 ) ) ;
#647 = EDGE_CURVE ( 'NONE', #357, #1068, #52, .T. ) ;
#648 = EDGE_CURVE ( 'NONE', #1260, #684, #928, .T. ) ;
#649 = CARTESIAN_POINT ( 'NONE',  ( 500000.0000000000582, 0.02499999999999995628, 0.2416666666232985261 ) ) ;
#650 = DIRECTION ( 'NONE',  ( -1.000000000000000000, -0.000000000000000000, 8.673617379884036705E-17 ) ) ;
#651 = CARTESIAN_POINT ( 'NONE',  ( 0.2000000000066393113, 0.5250000000000000222, -0.2416666666666666408 ) ) ;
#652 = ORIENTED_EDGE ( 'NONE', *, *, #86, .T. ) ;
#653 = EDGE_CURVE ( 'NONE', #659, #208, #232, .T. ) ;
#654 = AXIS2_PLACEMENT_3D ( 'NONE', #140, #609, #936 ) ;
#655 = ORIENTED_EDGE ( 'NONE', *, *, #261, .F. ) ;
#656 = CIRCLE ( 'NONE', #1075, 0.01666666666666667337 ) ;
#657 = FACE_OUTER_BOUND ( 'NONE', #297, .T. ) ;
#658 = CARTESIAN_POINT ( 'NONE',  ( 0.2000000000066393113, 0.008333333333333333218, 0.2249999999024217545 ) ) ;
#659 = VERTEX_POINT ( 'NONE', #132 ) ;
#660 = ORIENTED_EDGE ( 'NONE', *, *, #293, .F. ) ;
#661 = CARTESIAN_POINT ( 'NONE',  ( 0.4749999999999998668, 0.5500000000000000444, 0.2249999999999999500 ) ) ;
#662 = AXIS2_PLACEMENT_3D ( 'NONE', #778, #595, #588 ) ;
#663 = AXIS2_PLACEMENT_3D ( 'NONE', #984, #1175, #106 ) ;
#664 = LINE ( 'NONE', #766, #1248 ) ;
#665 = ORIENTED_EDGE ( 'NONE', *, *, #178, .T. ) ;
#666 = ORIENTED_EDGE ( 'NONE', *, *, #1194, .T. ) ;
#667 = FACE_OUTER_BOUND ( 'NONE', #586, .T. ) ;
#668 = ORIENTED_EDGE ( 'NONE', *, *, #41, .T. ) ;
#669 = ADVANCED_FACE ( 'NONE', ( #500 ), #219, .F. ) ;
#670 = ORIENTED_EDGE ( 'NONE', *, *, #648, .F. ) ;
#671 = VECTOR ( 'NONE', #646, 1000.000000000000000 ) ;
#672 = VECTOR ( 'NONE', #426, 1000.000000000000000 ) ;
#673 = AXIS2_PLACEMENT_3D ( 'NONE', #868, #1257, #360 ) ;
#674 = LINE ( 'NONE', #681, #774 ) ;
#675 = CARTESIAN_POINT ( 'NONE',  ( -0.4749999999999998668, 0.02499999999999995628, 0.2249999999999999500 ) ) ;
#676 = ORIENTED_EDGE ( 'NONE', *, *, #610, .F. ) ;
#677 = CARTESIAN_POINT ( 'NONE',  ( -0.5000000000000000000, 0.5250000000000000222, -0.2499999999999999445 ) ) ;
#678 = ORIENTED_EDGE ( 'NONE', *, *, #263, .F. ) ;
#679 = EDGE_CURVE ( 'NONE', #521, #466, #716, .T. ) ;
#680 = FACE_OUTER_BOUND ( 'NONE', #171, .T. ) ;
#681 = CARTESIAN_POINT ( 'NONE',  ( 500000.0000000000582, 0.5250000000000000222, 0.2416666666232984984 ) ) ;
#682 = DIRECTION ( 'NONE',  ( 0.000000000000000000, -1.000000000000000000, 0.000000000000000000 ) ) ;
#683 = AXIS2_PLACEMENT_3D ( 'NONE', #1001, #212, #385 ) ;
#684 = VERTEX_POINT ( 'NONE', #411 ) ;
#685 = AXIS2_PLACEMENT_3D ( 'NONE', #1184, #708, #1165 ) ;
#686 = CARTESIAN_POINT ( 'NONE',  ( 0.2000000000066393113, 0.5250000000000000222, 0.2416666666666665575 ) ) ;
#687 = EDGE_CURVE ( 'NONE', #100, #367, #715, .T. ) ;
#688 = ORIENTED_EDGE ( 'NONE', *, *, #610, .T. ) ;
#689 = CLOSED_SHELL ( 'NONE', ( #745, #860, #1256, #861, #877, #764, #734, #474, #1273, #747 ) ) ;
#690 = FACE_OUTER_BOUND ( 'NONE', #1168, .T. ) ;
#691 = CARTESIAN_POINT ( 'NONE',  ( 500000.0000000000582, 0.02499999999999995628, -0.2250000000433680647 ) ) ;
#692 = ADVANCED_FACE ( 'NONE', ( #900 ), #617, .F. ) ;
#693 = FACE_OUTER_BOUND ( 'NONE', #313, .T. ) ;
#694 = ORIENTED_EDGE ( 'NONE', *, *, #990, .T. ) ;
#695 = DIRECTION ( 'NONE',  ( -2.168404344971009361E-16, -0.000000000000000000, -1.000000000000000000 ) ) ;
#696 = VECTOR ( 'NONE', #304, 1000.000000000000000 ) ;
#697 = CIRCLE ( 'NONE', #773, 0.02500000000000001180 ) ;
#698 = DIRECTION ( 'NONE',  ( -1.000000000000000000, 0.000000000000000000, 0.000000000000000000 ) ) ;
#699 = EDGE_CURVE ( 'NONE', #888, #357, #198, .T. ) ;
#700 = ORIENTED_EDGE ( 'NONE', *, *, #7, .F. ) ;
#701 = CARTESIAN_POINT ( 'NONE',  ( 0.2000000000066393113, 0.02499999999999995975, -0.2416666666666666408 ) ) ;
#702 =( NAMED_UNIT ( * ) PLANE_ANGLE_UNIT ( ) SI_UNIT ( $, .RADIAN. ) );
#703 = DIRECTION ( 'NONE',  ( 0.000000000000000000, -1.000000000000000000, 0.000000000000000000 ) ) ;
#704 = ORIENTED_EDGE ( 'NONE', *, *, #679, .T. ) ;
#705 = FACE_OUTER_BOUND ( 'NONE', #95, .T. ) ;
#706 =( NAMED_UNIT ( * ) PLANE_ANGLE_UNIT ( ) SI_UNIT ( $, .RADIAN. ) );
#707 = AXIS2_PLACEMENT_3D ( 'NONE', #81, #372, #179 ) ;
#708 = DIRECTION ( 'NONE',  ( 0.000000000000000000, -1.000000000000000000, 0.000000000000000000 ) ) ;
#709 = CARTESIAN_POINT ( 'NONE',  ( -0.1999999999999999833, 0.5500000000000000444, -0.2499999999999999445 ) ) ;
#710 = ORIENTED_EDGE ( 'NONE', *, *, #435, .F. ) ;
#711 = CARTESIAN_POINT ( 'NONE',  ( 500000.0000000000582, 0.008333333333333333218, -0.2250000000433680647 ) ) ;
#712 = LINE ( 'NONE', #1092, #451 ) ;
#713 = ORIENTED_EDGE ( 'NONE', *, *, #202, .F. ) ;
#714 = DIRECTION ( 'NONE',  ( -1.084202172485504681E-16, -0.000000000000000000, -1.000000000000000000 ) ) ;
#715 = CIRCLE ( 'NONE', #880, 0.02500000000000001180 ) ;
#716 = LINE ( 'NONE', #203, #518 ) ;
#717 = ORIENTED_EDGE ( 'NONE', *, *, #687, .T. ) ;
#718 = LINE ( 'NONE', #413, #1067 ) ;
#719 = LINE ( 'NONE', #729, #364 ) ;
#720 = ORIENTED_EDGE ( 'NONE', *, *, #308, .F. ) ;
#721 = CARTESIAN_POINT ( 'NONE',  ( -0.5000000000000000000, 0.5250000000000000222, -0.2249999999999999500 ) ) ;
#722 = ADVANCED_FACE ( 'NONE', ( #1008 ), #494, .F. ) ;
#723 = CARTESIAN_POINT ( 'NONE',  ( -0.1999999999999999833, 0.5500000000000000444, -0.2499999999999999445 ) ) ;
#724 = DIRECTION ( 'NONE',  ( -0.000000000000000000, 1.000000000000000000, -0.000000000000000000 ) ) ;
#725 = CARTESIAN_POINT ( 'NONE',  ( 0.4749999999999999778, 0.02499999999999995628, -0.2499999999999999445 ) ) ;
#726 = ORIENTED_EDGE ( 'NONE', *, *, #955, .F. ) ;
#727 = CARTESIAN_POINT ( 'NONE',  ( 500000.0000000000582, 0.5416666666666667407, -0.2250000000433680647 ) ) ;
#728 = CARTESIAN_POINT ( 'NONE',  ( 0.2000000000066393113, 0.008333333333333333218, -0.2250000000000000056 ) ) ;
#729 = CARTESIAN_POINT ( 'NONE',  ( -0.1999999999999999278, 0.008333333333333333218, 0.2249999999999999500 ) ) ;
#730 = ORIENTED_EDGE ( 'NONE', *, *, #590, .F. ) ;
#731 = EDGE_CURVE ( 'NONE', #659, #521, #87, .T. ) ;
#732 = CARTESIAN_POINT ( 'NONE',  ( -0.1999999999999999278, 0.5500000000000000444, 0.2249999999999999500 ) ) ;
#733 = DIRECTION ( 'NONE',  ( 1.000000000000000000, 0.000000000000000000, 1.084202172485504681E-16 ) ) ;
#734 = ADVANCED_FACE ( 'NONE', ( #117 ), #508, .F. ) ;
#735 = FACE_OUTER_BOUND ( 'NONE', #359, .T. ) ;
#736 = CIRCLE ( 'NONE', #167, 0.02500000000000001180 ) ;
#737 = AXIS2_PLACEMENT_3D ( 'NONE', #1105, #947, #842 ) ;
#738 = DIRECTION ( 'NONE',  ( 0.000000000000000000, 0.000000000000000000, -1.000000000000000000 ) ) ;
#739 = ORIENTED_EDGE ( 'NONE', *, *, #226, .T. ) ;
#740 = PRESENTATION_LAYER_ASSIGNMENT (  '', '', ( #1118 ) ) ;
#741 = DIRECTION ( 'NONE',  ( 0.000000000000000000, 0.000000000000000000, -1.000000000000000000 ) ) ;
#742 = DIRECTION ( 'NONE',  ( 1.000000000000000000, 0.000000000000000000, -8.673617379884036705E-17 ) ) ;
#743 = DIRECTION ( 'NONE',  ( -1.000000000000000000, -0.000000000000000000, 8.673617379884036705E-17 ) ) ;
#744 = VERTEX_POINT ( 'NONE', #814 ) ;
#745 = ADVANCED_FACE ( 'NONE', ( #1202 ), #310, .T. ) ;
#746 = CARTESIAN_POINT ( 'NONE',  ( -0.1999999999999999833, 0.02499999999999995975, -0.2416666666666665853 ) ) ;
#747 = ADVANCED_FACE ( 'NONE', ( #445 ), #162, .T. ) ;
#748 = ADVANCED_FACE ( 'NONE', ( #438 ), #1230, .T. ) ;
#749 = FACE_OUTER_BOUND ( 'NONE', #27, .T. ) ;
#750 = ORIENTED_EDGE ( 'NONE', *, *, #437, .T. ) ;
#751 = SHAPE_DEFINITION_REPRESENTATION ( #576, #441 ) ;
#752 = ORIENTED_EDGE ( 'NONE', *, *, #261, .T. ) ;
#753 = AXIS2_PLACEMENT_3D ( 'NONE', #235, #829, #1009 ) ;
#754 = PLANE ( 'NONE',  #72 ) ;
#755 = SPHERICAL_SURFACE ( 'NONE', #467, 0.02500000000000000139 ) ;
#756 = CARTESIAN_POINT ( 'NONE',  ( -0.4749999999999999778, 0.5250000000000000222, -0.2249999999999999500 ) ) ;
#757 = ORIENTED_EDGE ( 'NONE', *, *, #347, .F. ) ;
#758 = CIRCLE ( 'NONE', #84, 0.02500000000000001180 ) ;
#759 = ORIENTED_EDGE ( 'NONE', *, *, #1139, .F. ) ;
#760 = AXIS2_PLACEMENT_3D ( 'NONE', #585, #369, #592 ) ;
#761 = EDGE_LOOP ( 'NONE', ( #361, #1103, #266, #300 ) ) ;
#762 = ORIENTED_EDGE ( 'NONE', *, *, #577, .F. ) ;
#763 = VECTOR ( 'NONE', #190, 1000.000000000000000 ) ;
#764 = ADVANCED_FACE ( 'NONE', ( #1148 ), #454, .T. ) ;
#765 = EDGE_CURVE ( 'NONE', #143, #259, #257, .T. ) ;
#766 = CARTESIAN_POINT ( 'NONE',  ( 0.1999999999999999833, 0.5500000000000000444, -0.2499999999999999445 ) ) ;
#767 = ORIENTED_EDGE ( 'NONE', *, *, #699, .T. ) ;
#768 = ORIENTED_EDGE ( 'NONE', *, *, #765, .F. ) ;
#769 = LINE ( 'NONE', #75, #1097 ) ;
#770 = ORIENTED_EDGE ( 'NONE', *, *, #1258, .F. ) ;
#771 = ORIENTED_EDGE ( 'NONE', *, *, #380, .F. ) ;
#772 = VECTOR ( 'NONE', #307, 1000.000000000000000 ) ;
#773 = AXIS2_PLACEMENT_3D ( 'NONE', #849, #1153, #855 ) ;
#774 = VECTOR ( 'NONE', #571, 1000.000000000000000 ) ;
#775 = PLANE ( 'NONE',  #933 ) ;
#776 = DIRECTION ( 'NONE',  ( 1.000000000000000000, 0.000000000000000000, -0.000000000000000000 ) ) ;
#777 = ORIENTED_EDGE ( 'NONE', *, *, #838, .T. ) ;
#778 = CARTESIAN_POINT ( 'NONE',  ( 0.1999999999999999833, 0.5500000000000000444, -0.2499999999999999445 ) ) ;
#779 = ADVANCED_FACE ( 'NONE', ( #643 ), #245, .T. ) ;
#780 = EDGE_CURVE ( 'NONE', #466, #1129, #1140, .T. ) ;
#781 = CARTESIAN_POINT ( 'NONE',  ( -0.1999999999999999833, 0.5250000000000000222, -0.2249999999999999500 ) ) ;
#782 = CIRCLE ( 'NONE', #1209, 0.02500000000000001180 ) ;
#783 = ORIENTED_EDGE ( 'NONE', *, *, #218, .F. ) ;
#784 = LINE ( 'NONE', #711, #160 ) ;
#785 = SURFACE_STYLE_FILL_AREA ( #574 ) ;
#786 = CARTESIAN_POINT ( 'NONE',  ( 0.1999999999999999278, 0.02499999999999995628, 0.2499999999999999445 ) ) ;
#787 = CARTESIAN_POINT ( 'NONE',  ( 0.4749999999999999778, 0.02499999999999995628, -0.2499999999999999445 ) ) ;
#788 = EDGE_LOOP ( 'NONE', ( #442, #104, #189, #421 ) ) ;
#789 = CARTESIAN_POINT ( 'NONE',  ( -0.4999999999999998890, 0.02499999999999995628, 0.2499999999999999445 ) ) ;
#790 = AXIS2_PLACEMENT_3D ( 'NONE', #30, #1110, #626 ) ;
#791 = VECTOR ( 'NONE', #1052, 1000.000000000000000 ) ;
#792 = DIRECTION ( 'NONE',  ( 8.673617379884036705E-17, -0.000000000000000000, 1.000000000000000000 ) ) ;
#793 = DIRECTION ( 'NONE',  ( -0.000000000000000000, -1.000000000000000000, -0.000000000000000000 ) ) ;
#794 =( GEOMETRIC_REPRESENTATION_CONTEXT ( 3 ) GLOBAL_UNCERTAINTY_ASSIGNED_CONTEXT ( ( #1177 ) ) GLOBAL_UNIT_ASSIGNED_CONTEXT ( ( #201, #101, #1065 ) ) REPRESENTATION_CONTEXT ( 'NONE', 'WORKASPACE' ) );
#795 = CARTESIAN_POINT ( 'NONE',  ( 0.4749999999999998668, 0.5500000000000000444, 0.2499999999999999445 ) ) ;
#796 = EDGE_LOOP ( 'NONE', ( #135, #569, #449, #1120 ) ) ;
#797 = LINE ( 'NONE', #1003, #827 ) ;
#798 = FILL_AREA_STYLE_COLOUR ( '', #1000 ) ;
#799 = EDGE_LOOP ( 'NONE', ( #511, #717, #730 ) ) ;
#800 = PLANE ( 'NONE',  #685 ) ;
#801 = DIRECTION ( 'NONE',  ( 1.000000000000000000, 0.000000000000000000, -2.168404344971009361E-16 ) ) ;
#802 = EDGE_LOOP ( 'NONE', ( #1251, #1122, #1014, #1073 ) ) ;
#803 = DIRECTION ( 'NONE',  ( -0.000000000000000000, 1.000000000000000000, 0.000000000000000000 ) ) ;
#804 = DIRECTION ( 'NONE',  ( 0.000000000000000000, 0.000000000000000000, 1.000000000000000000 ) ) ;
#805 = DIRECTION ( 'NONE',  ( 0.000000000000000000, 0.000000000000000000, 1.000000000000000000 ) ) ;
#806 = DIRECTION ( 'NONE',  ( 2.168404344971009361E-16, -0.000000000000000000, -1.000000000000000000 ) ) ;
#807 = DIRECTION ( 'NONE',  ( 1.000000000000000000, -0.000000000000000000, -1.084202172485504681E-16 ) ) ;
#808 = CYLINDRICAL_SURFACE ( 'NONE', #283, 0.02500000000000001180 ) ;
#809 = ORIENTED_EDGE ( 'NONE', *, *, #581, .T. ) ;
#810 = ADVANCED_FACE ( 'NONE', ( #657 ), #54, .T. ) ;
#811 = DIRECTION ( 'NONE',  ( 0.000000000000000000, 0.000000000000000000, 1.000000000000000000 ) ) ;
#812 = VECTOR ( 'NONE', #543, 1000.000000000000000 ) ;
#813 = STYLED_ITEM ( 'NONE', ( #353 ), #536 ) ;
#814 = CARTESIAN_POINT ( 'NONE',  ( -0.1999999999999999278, 0.02499999999999995628, 0.2499999999999999445 ) ) ;
#815 = DIRECTION ( 'NONE',  ( -1.000000000000000000, -0.000000000000000000, -0.000000000000000000 ) ) ;
#816 = ADVANCED_FACE ( 'NONE', ( #554 ), #834, .T. ) ;
#817 = DIRECTION ( 'NONE',  ( 0.000000000000000000, -1.000000000000000000, 0.000000000000000000 ) ) ;
#818 = EDGE_LOOP ( 'NONE', ( #726, #447, #265, #720 ) ) ;
#819 = PLANE ( 'NONE',  #1245 ) ;
#820 = EDGE_CURVE ( 'NONE', #143, #260, #836, .T. ) ;
#821 = EDGE_CURVE ( 'NONE', #85, #342, #859, .T. ) ;
#822 = CARTESIAN_POINT ( 'NONE',  ( -0.4749999999999999778, 0.5250000000000000222, -0.2249999999999999500 ) ) ;
#823 = EDGE_CURVE ( 'NONE', #852, #335, #1035, .T. ) ;
#824 = LINE ( 'NONE', #903, #515 ) ;
#825 = ORIENTED_EDGE ( 'NONE', *, *, #647, .T. ) ;
#826 = DIRECTION ( 'NONE',  ( 0.000000000000000000, 0.000000000000000000, -1.000000000000000000 ) ) ;
#827 = VECTOR ( 'NONE', #1196, 1000.000000000000000 ) ;
#828 = DIRECTION ( 'NONE',  ( 0.000000000000000000, 0.000000000000000000, 1.000000000000000000 ) ) ;
#829 = DIRECTION ( 'NONE',  ( -1.000000000000000000, 0.000000000000000000, 0.000000000000000000 ) ) ;
#830 = LINE ( 'NONE', #207, #959 ) ;
#831 = ORIENTED_EDGE ( 'NONE', *, *, #1132, .T. ) ;
#832 = EDGE_CURVE ( 'NONE', #348, #403, #528, .T. ) ;
#833 = DIRECTION ( 'NONE',  ( 0.000000000000000000, 1.000000000000000000, 0.000000000000000000 ) ) ;
#834 = SPHERICAL_SURFACE ( 'NONE', #1223, 0.02500000000000000139 ) ;
#835 = CARTESIAN_POINT ( 'NONE',  ( -0.4749999999999999778, 0.5500000000000000444, -0.2249999999999999500 ) ) ;
#836 = CIRCLE ( 'NONE', #267, 0.01666666666666667337 ) ;
#837 = CARTESIAN_POINT ( 'NONE',  ( 0.4999999999999998890, 0.02499999999999995628, 0.2499999999999999445 ) ) ;
#838 = EDGE_CURVE ( 'NONE', #367, #1181, #1029, .T. ) ;
#839 = ORIENTED_EDGE ( 'NONE', *, *, #1046, .F. ) ;
#840 = VECTOR ( 'NONE', #343, 1000.000000000000000 ) ;
#841 = CARTESIAN_POINT ( 'NONE',  ( 0.1999999999999999833, 0.000000000000000000, -0.2249999999999999500 ) ) ;
#842 = DIRECTION ( 'NONE',  ( -1.084202172485504681E-16, 0.000000000000000000, 1.000000000000000000 ) ) ;
#843 = DIRECTION ( 'NONE',  ( -0.000000000000000000, -0.000000000000000000, -1.000000000000000000 ) ) ;
#844 =( NAMED_UNIT ( * ) SI_UNIT ( $, .STERADIAN. ) SOLID_ANGLE_UNIT ( ) );
#845 = ORIENTED_EDGE ( 'NONE', *, *, #1096, .T. ) ;
#846 = ORIENTED_EDGE ( 'NONE', *, *, #351, .T. ) ;
#847 = CARTESIAN_POINT ( 'NONE',  ( 0.000000000000000000, 0.000000000000000000, 0.2249999999999999500 ) ) ;
#848 = LINE ( 'NONE', #333, #605 ) ;
#849 = CARTESIAN_POINT ( 'NONE',  ( 0.4749999999999999778, 0.02500000000000000139, -0.2249999999999999500 ) ) ;
#850 = ORIENTED_EDGE ( 'NONE', *, *, #41, .F. ) ;
#851 = SURFACE_SIDE_STYLE ('',( #63 ) ) ;
#852 = VERTEX_POINT ( 'NONE', #1225 ) ;
#853 = DIRECTION ( 'NONE',  ( -1.000000000000000000, -0.000000000000000000, 8.673617379884036705E-17 ) ) ;
#854 = CIRCLE ( 'NONE', #1200, 0.02500000000000001180 ) ;
#855 = DIRECTION ( 'NONE',  ( 1.000000000000000000, 0.000000000000000000, 0.000000000000000000 ) ) ;
#856 = ORIENTED_EDGE ( 'NONE', *, *, #969, .T. ) ;
#857 = AXIS2_PLACEMENT_3D ( 'NONE', #157, #1119, #66 ) ;
#858 = ORIENTED_EDGE ( 'NONE', *, *, #350, .F. ) ;
#859 = CIRCLE ( 'NONE', #1224, 0.01666666666666662133 ) ;
#860 = ADVANCED_FACE ( 'NONE', ( #952 ), #754, .F. ) ;
#861 = ADVANCED_FACE ( 'NONE', ( #535 ), #940, .T. ) ;
#862 = DIRECTION ( 'NONE',  ( -1.000000000000000000, 0.000000000000000000, 0.000000000000000000 ) ) ;
#863 = DIRECTION ( 'NONE',  ( 0.000000000000000000, 1.000000000000000000, 0.000000000000000000 ) ) ;
#864 = ORIENTED_EDGE ( 'NONE', *, *, #271, .T. ) ;
#865 = EDGE_CURVE ( 'NONE', #254, #885, #769, .T. ) ;
#866 = ORIENTED_EDGE ( 'NONE', *, *, #435, .T. ) ;
#867 = VECTOR ( 'NONE', #695, 1000.000000000000000 ) ;
#868 = CARTESIAN_POINT ( 'NONE',  ( -0.1999999999999999278, 0.5250000000000000222, 0.2249999999999999500 ) ) ;
#869 = DIRECTION ( 'NONE',  ( -1.000000000000000000, 0.000000000000000000, 0.000000000000000000 ) ) ;
#870 = ORIENTED_EDGE ( 'NONE', *, *, #499, .F. ) ;
#871 = ORIENTED_EDGE ( 'NONE', *, *, #820, .F. ) ;
#872 = DIRECTION ( 'NONE',  ( -2.168404344971009361E-16, 0.000000000000000000, -1.000000000000000000 ) ) ;
#873 = DIRECTION ( 'NONE',  ( 0.000000000000000000, -1.000000000000000000, -0.000000000000000000 ) ) ;
#874 = DIRECTION ( 'NONE',  ( 0.000000000000000000, -1.000000000000000000, 0.000000000000000000 ) ) ;
#875 = ORIENTED_EDGE ( 'NONE', *, *, #7, .T. ) ;
#876 = EDGE_CURVE ( 'NONE', #1082, #1147, #1061, .T. ) ;
#877 = ADVANCED_FACE ( 'NONE', ( #373 ), #282, .F. ) ;
#878 =( NAMED_UNIT ( * ) SI_UNIT ( $, .STERADIAN. ) SOLID_ANGLE_UNIT ( ) );
#879 = CIRCLE ( 'NONE', #492, 0.02500000000000001180 ) ;
#880 = AXIS2_PLACEMENT_3D ( 'NONE', #225, #608, #1216 ) ;
#881 = EDGE_CURVE ( 'NONE', #436, #1164, #1267, .T. ) ;
#882 = LINE ( 'NONE', #1083, #1151 ) ;
#883 = DIRECTION ( 'NONE',  ( 2.168404344971009361E-16, 0.000000000000000000, -1.000000000000000000 ) ) ;
#884 = LINE ( 'NONE', #185, #10 ) ;
#885 = VERTEX_POINT ( 'NONE', #786 ) ;
#886 = CARTESIAN_POINT ( 'NONE',  ( -0.4749999999999998668, 0.5250000000000000222, 0.2249999999999999500 ) ) ;
#887 = CARTESIAN_POINT ( 'NONE',  ( 0.1999999999999999833, 0.5250000000000000222, -0.2249999999999999500 ) ) ;
#888 = VERTEX_POINT ( 'NONE', #1171 ) ;
#889 = CARTESIAN_POINT ( 'NONE',  ( 0.5000000000000000000, 0.5500000000000000444, -0.2499999999999999445 ) ) ;
#890 = FILL_AREA_STYLE_COLOUR ( '', #388 ) ;
#891 = CARTESIAN_POINT ( 'NONE',  ( 0.2000000000066393113, 0.5250000000000000222, -0.2250000000000000056 ) ) ;
#892 = CARTESIAN_POINT ( 'NONE',  ( -0.1999999999999999833, 0.5416666666666667407, -0.2249999999999999500 ) ) ;
#893 = EDGE_LOOP ( 'NONE', ( #1032, #767, #825, #1242, #320, #118, #1219, #270 ) ) ;
#894 = DIRECTION ( 'NONE',  ( -1.000000000000000000, -0.000000000000000000, 8.673617379884036705E-17 ) ) ;
#895 = VECTOR ( 'NONE', #1013, 1000.000000000000000 ) ;
#896 = AXIS2_PLACEMENT_3D ( 'NONE', #234, #46, #337 ) ;
#897 = CARTESIAN_POINT ( 'NONE',  ( -0.4749999999999999778, 0.5500000000000000444, -0.2499999999999999445 ) ) ;
#898 = AXIS2_PLACEMENT_3D ( 'NONE', #781, #469, #277 ) ;
#899 = CARTESIAN_POINT ( 'NONE',  ( 0.4749999999999999223, 0.5250000000000000222, 1.029992063861229336E-16 ) ) ;
#900 = FACE_OUTER_BOUND ( 'NONE', #176, .T. ) ;
#901 = ORIENTED_EDGE ( 'NONE', *, *, #631, .T. ) ;
#902 = DIRECTION ( 'NONE',  ( 1.000000000000000000, 0.000000000000000000, 1.084202172485504681E-16 ) ) ;
#903 = CARTESIAN_POINT ( 'NONE',  ( -0.5000000000000000000, 0.02499999999999995628, -0.2499999999999999445 ) ) ;
#904 = DIRECTION ( 'NONE',  ( 1.000000000000000000, 0.000000000000000000, 0.000000000000000000 ) ) ;
#905 = DIRECTION ( 'NONE',  ( -0.000000000000000000, -1.000000000000000000, -0.000000000000000000 ) ) ;
#906 = ADVANCED_FACE ( 'NONE', ( #667 ), #1055, .F. ) ;
#907 = VECTOR ( 'NONE', #594, 1000.000000000000000 ) ;
#908 = DIRECTION ( 'NONE',  ( -1.000000000000000000, 0.000000000000000000, 0.000000000000000000 ) ) ;
#909 = CARTESIAN_POINT ( 'NONE',  ( -0.5000000000000000000, 0.02499999999999995628, -0.2499999999999999445 ) ) ;
#910 = ORIENTED_EDGE ( 'NONE', *, *, #865, .F. ) ;
#911 = CIRCLE ( 'NONE', #663, 0.02500000000000001180 ) ;
#912 = FACE_OUTER_BOUND ( 'NONE', #523, .T. ) ;
#913 = CARTESIAN_POINT ( 'NONE',  ( 500000.0000000000582, 0.5250000000000000222, 0.2416666666232984984 ) ) ;
#914 = ORIENTED_EDGE ( 'NONE', *, *, #382, .F. ) ;
#915 = CARTESIAN_POINT ( 'NONE',  ( 0.2000000000066393113, 0.5250000000000000222, 0.2416666666666665575 ) ) ;
#916 = ADVANCED_FACE ( 'NONE', ( #1076 ), #168, .T. ) ;
#917 = CARTESIAN_POINT ( 'NONE',  ( 0.1999999999999999278, 0.5500000000000000444, 0.2249999999999999500 ) ) ;
#918 = ORIENTED_EDGE ( 'NONE', *, *, #1169, .F. ) ;
#919 = EDGE_CURVE ( 'NONE', #620, #1259, #431, .T. ) ;
#920 = PLANE ( 'NONE',  #790 ) ;
#921 = AXIS2_PLACEMENT_3D ( 'NONE', #621, #428, #1037 ) ;
#922 = VECTOR ( 'NONE', #1078, 1000.000000000000000 ) ;
#923 = CARTESIAN_POINT ( 'NONE',  ( 0.4749999999999998668, 0.5250000000000000222, 0.2249999999999999500 ) ) ;
#924 = LINE ( 'NONE', #1195, #997 ) ;
#925 = LINE ( 'NONE', #639, #696 ) ;
#926 = ORIENTED_EDGE ( 'NONE', *, *, #477, .F. ) ;
#927 = PLANE ( 'NONE',  #564 ) ;
#928 = LINE ( 'NONE', #723, #152 ) ;
#929 = CYLINDRICAL_SURFACE ( 'NONE', #753, 0.02500000000000001180 ) ;
#930 = DIRECTION ( 'NONE',  ( 1.084202172485504681E-16, -0.000000000000000000, -1.000000000000000000 ) ) ;
#931 = ORIENTED_EDGE ( 'NONE', *, *, #15, .F. ) ;
#932 = FACE_OUTER_BOUND ( 'NONE', #408, .T. ) ;
#933 = AXIS2_PLACEMENT_3D ( 'NONE', #12, #792, #296 ) ;
#934 = EDGE_CURVE ( 'NONE', #1068, #1259, #674, .T. ) ;
#935 = CARTESIAN_POINT ( 'NONE',  ( -0.1999999999999999833, 0.5250000000000000222, -0.2499999999999999445 ) ) ;
#936 = DIRECTION ( 'NONE',  ( 0.000000000000000000, 0.000000000000000000, -1.000000000000000000 ) ) ;
#937 = FILL_AREA_STYLE_COLOUR ( '', #209 ) ;
#938 = ORIENTED_EDGE ( 'NONE', *, *, #271, .F. ) ;
#939 = CARTESIAN_POINT ( 'NONE',  ( -0.4999999999999998890, 0.02499999999999995628, 0.2249999999999999500 ) ) ;
#940 = CYLINDRICAL_SURFACE ( 'NONE', #611, 0.01666666666666664562 ) ;
#941 = DIRECTION ( 'NONE',  ( -1.000000000000000000, 0.000000000000000000, 0.000000000000000000 ) ) ;
#942 = CIRCLE ( 'NONE', #565, 0.02500000000000001180 ) ;
#943 = LINE ( 'NONE', #892, #922 ) ;
#944 = ORIENTED_EDGE ( 'NONE', *, *, #525, .F. ) ;
#945 = MECHANICAL_DESIGN_GEOMETRIC_PRESENTATION_REPRESENTATION (  '', ( #963 ), #794 ) ;
#946 = ORIENTED_EDGE ( 'NONE', *, *, #553, .F. ) ;
#947 = DIRECTION ( 'NONE',  ( 1.000000000000000000, 0.000000000000000000, 1.084202172485504681E-16 ) ) ;
#948 = CARTESIAN_POINT ( 'NONE',  ( 500000.0000000000582, 0.5416666666666667407, 0.2249999999566318354 ) ) ;
#949 = ORIENTED_EDGE ( 'NONE', *, *, #631, .F. ) ;
#950 = ORIENTED_EDGE ( 'NONE', *, *, #1237, .T. ) ;
#951 = AXIS2_PLACEMENT_3D ( 'NONE', #891, #1098, #4 ) ;
#952 = FACE_OUTER_BOUND ( 'NONE', #412, .T. ) ;
#953 = CARTESIAN_POINT ( 'NONE',  ( 0.4749999999999998668, 0.5500000000000000444, 0.2249999999999999500 ) ) ;
#954 = ORIENTED_EDGE ( 'NONE', *, *, #881, .T. ) ;
#955 = EDGE_CURVE ( 'NONE', #1181, #684, #496, .T. ) ;
#956 = ORIENTED_EDGE ( 'NONE', *, *, #1183, .T. ) ;
#957 = ADVANCED_FACE ( 'NONE', ( #970 ), #1166, .T. ) ;
#958 = EDGE_CURVE ( 'NONE', #243, #744, #3, .T. ) ;
#959 = VECTOR ( 'NONE', #930, 1000.000000000000000 ) ;
#960 = ORIENTED_EDGE ( 'NONE', *, *, #647, .F. ) ;
#961 = AXIS2_PLACEMENT_3D ( 'NONE', #709, #111, #19 ) ;
#962 = ORIENTED_EDGE ( 'NONE', *, *, #35, .T. ) ;
#963 = STYLED_ITEM ( 'NONE', ( #368 ), #965 ) ;
#964 = DIRECTION ( 'NONE',  ( 0.000000000000000000, 1.000000000000000000, 0.000000000000000000 ) ) ;
#965 = MANIFOLD_SOLID_BREP ( 'Fillet1', #534 ) ;
#966 = CARTESIAN_POINT ( 'NONE',  ( -0.4749999999999999778, 0.5250000000000000222, -0.2249999999999999500 ) ) ;
#967 = ORIENTED_EDGE ( 'NONE', *, *, #380, .T. ) ;
#968 = ORIENTED_EDGE ( 'NONE', *, *, #731, .T. ) ;
#969 = EDGE_CURVE ( 'NONE', #17, #521, #1178, .T. ) ;
#970 = FACE_OUTER_BOUND ( 'NONE', #269, .T. ) ;
#971 = MANIFOLD_SOLID_BREP ( 'Boss-Extrude2', #689 ) ;
#972 = CYLINDRICAL_SURFACE ( 'NONE', #760, 0.02500000000000001180 ) ;
#973 = ORIENTED_EDGE ( 'NONE', *, *, #699, .F. ) ;
#974 = VERTEX_POINT ( 'NONE', #371 ) ;
#975 = CARTESIAN_POINT ( 'NONE',  ( 0.5000000000000000000, 0.5500000000000000444, -0.2499999999999999445 ) ) ;
#976 = DIRECTION ( 'NONE',  ( 0.000000000000000000, 0.000000000000000000, 1.000000000000000000 ) ) ;
#977 = LINE ( 'NONE', #83, #440 ) ;
#978 = DIRECTION ( 'NONE',  ( -2.168404344971009361E-16, 0.000000000000000000, -1.000000000000000000 ) ) ;
#979 = ORIENTED_EDGE ( 'NONE', *, *, #293, .T. ) ;
#980 = AXIS2_PLACEMENT_3D ( 'NONE', #618, #628, #133 ) ;
#981 = CYLINDRICAL_SURFACE ( 'NONE', #197, 0.02500000000000001180 ) ;
#982 = DIRECTION ( 'NONE',  ( 1.000000000000000000, 0.000000000000000000, -8.673617379884036705E-17 ) ) ;
#983 = ORIENTED_EDGE ( 'NONE', *, *, #1183, .F. ) ;
#984 = CARTESIAN_POINT ( 'NONE',  ( 0.4749999999999998668, 0.5250000000000000222, 0.2249999999999999500 ) ) ;
#985 = DIRECTION ( 'NONE',  ( -1.000000000000000000, 0.000000000000000000, 0.000000000000000000 ) ) ;
#986 = VECTOR ( 'NONE', #714, 1000.000000000000000 ) ;
#987 = ORIENTED_EDGE ( 'NONE', *, *, #1235, .T. ) ;
#988 = ORIENTED_EDGE ( 'NONE', *, *, #1229, .T. ) ;
#989 = EDGE_CURVE ( 'NONE', #1135, #305, #1280, .T. ) ;
#990 = EDGE_CURVE ( 'NONE', #243, #436, #996, .T. ) ;
#991 = CARTESIAN_POINT ( 'NONE',  ( 0.5000000000000000000, 0.5500000000000000444, -0.2249999999999999500 ) ) ;
#992 = ADVANCED_FACE ( 'NONE', ( #489 ), #473, .F. ) ;
#993 = CYLINDRICAL_SURFACE ( 'NONE', #555, 0.02499999999999995628 ) ;
#994 = DIRECTION ( 'NONE',  ( -1.084202172485504804E-16, 0.000000000000000000, 1.000000000000000000 ) ) ;
#995 = ORIENTED_EDGE ( 'NONE', *, *, #548, .F. ) ;
#996 = LINE ( 'NONE', #390, #1185 ) ;
#997 = VECTOR ( 'NONE', #815, 1000.000000000000000 ) ;
#998 = AXIS2_PLACEMENT_3D ( 'NONE', #336, #1021, #811 ) ;
#999 = VECTOR ( 'NONE', #853, 1000.000000000000000 ) ;
#1000 = COLOUR_RGB ( '',0.7921568627450980005, 0.8196078431372548767, 0.9333333333333333481 ) ;
#1001 = CARTESIAN_POINT ( 'NONE',  ( -0.4749999999999998668, 0.5250000000000000222, 0.2249999999999999500 ) ) ;
#1002 = LINE ( 'NONE', #501, #1174 ) ;
#1003 = CARTESIAN_POINT ( 'NONE',  ( 0.5000000000000000000, 0.02499999999999995628, -0.2499999999999999445 ) ) ;
#1004 = DIRECTION ( 'NONE',  ( 1.000000000000000000, 0.000000000000000000, 0.000000000000000000 ) ) ;
#1005 = EDGE_LOOP ( 'NONE', ( #914, #864, #1149, #614 ) ) ;
#1006 = PRODUCT_CONTEXT ( 'NONE', #339, 'mechanical' ) ;
#1007 = LINE ( 'NONE', #897, #315 ) ;
#1008 = FACE_OUTER_BOUND ( 'NONE', #127, .T. ) ;
#1009 = DIRECTION ( 'NONE',  ( 0.000000000000000000, 0.000000000000000000, 1.000000000000000000 ) ) ;
#1010 = EDGE_CURVE ( 'NONE', #1068, #143, #276, .T. ) ;
#1011 = VECTOR ( 'NONE', #298, 1000.000000000000000 ) ;
#1012 = DIRECTION ( 'NONE',  ( 1.000000000000000000, -0.000000000000000000, -1.084202172485504681E-16 ) ) ;
#1013 = DIRECTION ( 'NONE',  ( -0.000000000000000000, 1.000000000000000000, -0.000000000000000000 ) ) ;
#1014 = ORIENTED_EDGE ( 'NONE', *, *, #484, .T. ) ;
#1015 = ADVANCED_FACE ( 'NONE', ( #1069 ), #89, .T. ) ;
#1016 = CARTESIAN_POINT ( 'NONE',  ( -0.1999999999999999833, 0.5250000000000000222, -0.2249999999999999500 ) ) ;
#1017 = EDGE_CURVE ( 'NONE', #400, #387, #420, .T. ) ;
#1018 = ORIENTED_EDGE ( 'NONE', *, *, #481, .F. ) ;
#1019 = DIRECTION ( 'NONE',  ( -1.000000000000000000, 0.000000000000000000, 0.000000000000000000 ) ) ;
#1020 = ORIENTED_EDGE ( 'NONE', *, *, #876, .T. ) ;
#1021 = DIRECTION ( 'NONE',  ( 1.000000000000000000, 0.000000000000000000, 0.000000000000000000 ) ) ;
#1022 = AXIS2_PLACEMENT_3D ( 'NONE', #1108, #396, #804 ) ;
#1023 = VECTOR ( 'NONE', #793, 1000.000000000000000 ) ;
#1024 = DIRECTION ( 'NONE',  ( 1.000000000000000000, 0.000000000000000000, 1.084202172485504681E-16 ) ) ;
#1025 = ORIENTED_EDGE ( 'NONE', *, *, #525, .T. ) ;
#1026 = DIRECTION ( 'NONE',  ( -1.000000000000000000, -0.000000000000000000, 8.673617379884036705E-17 ) ) ;
#1027 = ORIENTED_EDGE ( 'NONE', *, *, #273, .T. ) ;
#1028 = CARTESIAN_POINT ( 'NONE',  ( 0.2000000000066393113, 0.02499999999999995628, -0.2416666666666666130 ) ) ;
#1029 = LINE ( 'NONE', #935, #840 ) ;
#1030 = EDGE_LOOP ( 'NONE', ( #215, #771, #354, #124 ) ) ;
#1031 = CYLINDRICAL_SURFACE ( 'NONE', #128, 0.02500000000000001180 ) ;
#1032 = ORIENTED_EDGE ( 'NONE', *, *, #1190, .T. ) ;
#1033 =( NAMED_UNIT ( * ) PLANE_ANGLE_UNIT ( ) SI_UNIT ( $, .RADIAN. ) );
#1034 = DIRECTION ( 'NONE',  ( 1.000000000000000000, 0.000000000000000000, -8.673617379884036705E-17 ) ) ;
#1035 = LINE ( 'NONE', #847, #169 ) ;
#1036 = ORIENTED_EDGE ( 'NONE', *, *, #989, .F. ) ;
#1037 = DIRECTION ( 'NONE',  ( 0.000000000000000000, 0.000000000000000000, 1.000000000000000000 ) ) ;
#1038 = CARTESIAN_POINT ( 'NONE',  ( 0.1999999999999999833, 0.5500000000000000444, -0.2499999999999999445 ) ) ;
#1039 = DIRECTION ( 'NONE',  ( 1.000000000000000000, 0.000000000000000000, 0.000000000000000000 ) ) ;
#1040 = CIRCLE ( 'NONE', #514, 0.02500000000000001180 ) ;
#1041 = VECTOR ( 'NONE', #994, 1000.000000000000000 ) ;
#1042 = ORIENTED_EDGE ( 'NONE', *, *, #587, .F. ) ;
#1043 = FILL_AREA_STYLE_COLOUR ( '', #1212 ) ;
#1044 = EDGE_LOOP ( 'NONE', ( #987, #532, #983, #866 ) ) ;
#1045 = DIRECTION ( 'NONE',  ( 0.000000000000000000, 0.000000000000000000, -1.000000000000000000 ) ) ;
#1046 = EDGE_CURVE ( 'NONE', #318, #744, #96, .T. ) ;
#1047 = DIRECTION ( 'NONE',  ( -1.000000000000000000, 0.000000000000000000, 0.000000000000000000 ) ) ;
#1048 = ORIENTED_EDGE ( 'NONE', *, *, #581, .F. ) ;
#1049 = VERTEX_POINT ( 'NONE', #401 ) ;
#1050 = EDGE_CURVE ( 'NONE', #208, #521, #911, .T. ) ;
#1051 = CARTESIAN_POINT ( 'NONE',  ( 0.4749999999999998668, 0.5250000000000000222, 0.2249999999999999500 ) ) ;
#1052 = DIRECTION ( 'NONE',  ( -2.168404344971009361E-16, 0.000000000000000000, 1.000000000000000000 ) ) ;
#1053 = EDGE_LOOP ( 'NONE', ( #355, #1090, #1250, #1036 ) ) ;
#1054 = ORIENTED_EDGE ( 'NONE', *, *, #881, .F. ) ;
#1055 = PLANE ( 'NONE',  #109 ) ;
#1056 = CIRCLE ( 'NONE', #541, 0.02500000000000001180 ) ;
#1057 = DIRECTION ( 'NONE',  ( 0.000000000000000000, 0.000000000000000000, 1.000000000000000000 ) ) ;
#1058 = ORIENTED_EDGE ( 'NONE', *, *, #347, .T. ) ;
#1059 = AXIS2_PLACEMENT_3D ( 'NONE', #661, #424, #1246 ) ;
#1060 = ORIENTED_EDGE ( 'NONE', *, *, #1062, .T. ) ;
#1061 = CIRCLE ( 'NONE', #545, 0.02500000000000001180 ) ;
#1062 = EDGE_CURVE ( 'NONE', #744, #378, #642, .T. ) ;
#1063 = DIRECTION ( 'NONE',  ( 0.000000000000000000, 0.000000000000000000, -1.000000000000000000 ) ) ;
#1064 = EDGE_LOOP ( 'NONE', ( #1018, #1203, #783, #1254 ) ) ;
#1065 =( NAMED_UNIT ( * ) SI_UNIT ( $, .STERADIAN. ) SOLID_ANGLE_UNIT ( ) );
#1066 = EDGE_LOOP ( 'NONE', ( #926, #487, #222, #375 ) ) ;
#1067 = VECTOR ( 'NONE', #334, 1000.000000000000000 ) ;
#1068 = VERTEX_POINT ( 'NONE', #915 ) ;
#1069 = FACE_OUTER_BOUND ( 'NONE', #370, .T. ) ;
#1070 = EDGE_LOOP ( 'NONE', ( #960, #665, #625, #550 ) ) ;
#1071 = CARTESIAN_POINT ( 'NONE',  ( -0.4749999999999998668, 0.5500000000000000444, 0.2249999999999999500 ) ) ;
#1072 = DIRECTION ( 'NONE',  ( 1.000000000000000000, 0.000000000000000000, 0.000000000000000000 ) ) ;
#1073 = ORIENTED_EDGE ( 'NONE', *, *, #530, .T. ) ;
#1074 = DIRECTION ( 'NONE',  ( 1.000000000000000000, 0.000000000000000000, 0.000000000000000000 ) ) ;
#1075 = AXIS2_PLACEMENT_3D ( 'NONE', #279, #982, #5 ) ;
#1076 = FACE_OUTER_BOUND ( 'NONE', #802, .T. ) ;
#1077 = UNCERTAINTY_MEASURE_WITH_UNIT (LENGTH_MEASURE( 1.000000000000000082E-05 ), #1253, 'distance_accuracy_value', 'NONE');
#1078 = DIRECTION ( 'NONE',  ( 1.204669080539449837E-16, 0.000000000000000000, 1.000000000000000000 ) ) ;
#1079 = ORIENTED_EDGE ( 'NONE', *, *, #1101, .T. ) ;
#1080 = EDGE_CURVE ( 'NONE', #85, #461, #784, .T. ) ;
#1081 = LINE ( 'NONE', #192, #907 ) ;
#1082 = VERTEX_POINT ( 'NONE', #488 ) ;
#1083 = CARTESIAN_POINT ( 'NONE',  ( -0.4749999999999999223, 0.000000000000000000, 1.029992063861229336E-16 ) ) ;
#1084 = AXIS2_PLACEMENT_3D ( 'NONE', #889, #502, #908 ) ;
#1085 = ORIENTED_EDGE ( 'NONE', *, *, #218, .T. ) ;
#1086 = CARTESIAN_POINT ( 'NONE',  ( -0.1999999999999999278, 0.02499999999999995628, 0.2249999999999999500 ) ) ;
#1087 = SURFACE_STYLE_FILL_AREA ( #289 ) ;
#1088 = DIRECTION ( 'NONE',  ( 0.000000000000000000, 0.000000000000000000, 1.000000000000000000 ) ) ;
#1089 = DIRECTION ( 'NONE',  ( -2.168404344971009361E-16, 0.000000000000000000, -1.000000000000000000 ) ) ;
#1090 = ORIENTED_EDGE ( 'NONE', *, *, #1194, .F. ) ;
#1091 = CARTESIAN_POINT ( 'NONE',  ( 0.5000000000000000000, 0.02499999999999995628, -0.2249999999999999500 ) ) ;
#1092 = CARTESIAN_POINT ( 'NONE',  ( 0.000000000000000000, 0.000000000000000000, 0.2249999999999999500 ) ) ;
#1093 = ORIENTED_EDGE ( 'NONE', *, *, #1010, .F. ) ;
#1094 = AXIS2_PLACEMENT_3D ( 'NONE', #516, #1026, #134 ) ;
#1095 = CIRCLE ( 'NONE', #1201, 0.02500000000000001180 ) ;
#1096 = EDGE_CURVE ( 'NONE', #1260, #243, #1131, .T. ) ;
#1097 = VECTOR ( 'NONE', #873, 1000.000000000000000 ) ;
#1098 = DIRECTION ( 'NONE',  ( 1.000000000000000000, 0.000000000000000000, 1.084202172485504681E-16 ) ) ;
#1099 = DIRECTION ( 'NONE',  ( -1.000000000000000000, 0.000000000000000000, 0.000000000000000000 ) ) ;
#1100 = FACE_OUTER_BOUND ( 'NONE', #818, .T. ) ;
#1101 = EDGE_CURVE ( 'NONE', #29, #400, #177, .T. ) ;
#1102 = DIRECTION ( 'NONE',  ( -1.000000000000000000, 0.000000000000000000, 0.000000000000000000 ) ) ;
#1103 = ORIENTED_EDGE ( 'NONE', *, *, #1155, .T. ) ;
#1104 = CYLINDRICAL_SURFACE ( 'NONE', #51, 0.02500000000000001180 ) ;
#1105 = CARTESIAN_POINT ( 'NONE',  ( 0.1999999999999999833, 0.5500000000000000444, -0.2499999999999999445 ) ) ;
#1106 = LINE ( 'NONE', #213, #249 ) ;
#1107 = CIRCLE ( 'NONE', #1275, 0.02500000000000001180 ) ;
#1108 = CARTESIAN_POINT ( 'NONE',  ( 0.1999999999999999278, 0.02499999999999995628, 0.2249999999999999500 ) ) ;
#1109 = ORIENTED_EDGE ( 'NONE', *, *, #1050, .T. ) ;
#1110 = DIRECTION ( 'NONE',  ( 0.000000000000000000, 1.000000000000000000, 0.000000000000000000 ) ) ;
#1111 = DIRECTION ( 'NONE',  ( -1.084202172485504681E-16, -0.000000000000000000, -1.000000000000000000 ) ) ;
#1112 = DIRECTION ( 'NONE',  ( 0.000000000000000000, 0.000000000000000000, -1.000000000000000000 ) ) ;
#1113 = DIRECTION ( 'NONE',  ( -1.204669080539449837E-16, 0.000000000000000000, -1.000000000000000000 ) ) ;
#1114 = VERTEX_POINT ( 'NONE', #1182 ) ;
#1115 = DIRECTION ( 'NONE',  ( 0.000000000000000000, -1.000000000000000000, -0.000000000000000000 ) ) ;
#1116 = CIRCLE ( 'NONE', #1247, 0.02500000000000001180 ) ;
#1117 = VECTOR ( 'NONE', #1047, 1000.000000000000000 ) ;
#1118 = STYLED_ITEM ( 'NONE', ( #497 ), #971 ) ;
#1119 = DIRECTION ( 'NONE',  ( -1.000000000000000000, -0.000000000000000000, 8.673617379884036705E-17 ) ) ;
#1120 = ORIENTED_EDGE ( 'NONE', *, *, #437, .F. ) ;
#1121 = FACE_OUTER_BOUND ( 'NONE', #1064, .T. ) ;
#1122 = ORIENTED_EDGE ( 'NONE', *, *, #1238, .T. ) ;
#1123 = ADVANCED_FACE ( 'NONE', ( #705 ), #389, .F. ) ;
#1124 = CARTESIAN_POINT ( 'NONE',  ( -0.4749999999999998668, 0.5250000000000000222, 0.2249999999999999500 ) ) ;
#1125 = PRODUCT_DEFINITION_CONTEXT ( 'detailed design', #295, 'design' ) ;
#1126 = CARTESIAN_POINT ( 'NONE',  ( 0.4749999999999999778, 0.02500000000000000139, -0.2249999999999999500 ) ) ;
#1127 = DIRECTION ( 'NONE',  ( 0.000000000000000000, -1.000000000000000000, 5.421010862427520937E-17 ) ) ;
#1128 = CARTESIAN_POINT ( 'NONE',  ( 0.4749999999999999778, 0.5250000000000000222, -0.2249999999999999500 ) ) ;
#1129 = VERTEX_POINT ( 'NONE', #22 ) ;
#1130 = LINE ( 'NONE', #732, #812 ) ;
#1131 = CIRCLE ( 'NONE', #1186, 0.02500000000000001180 ) ;
#1132 = EDGE_CURVE ( 'NONE', #1114, #17, #782, .T. ) ;
#1133 = PRESENTATION_LAYER_ASSIGNMENT (  '', '', ( #317 ) ) ;
#1134 = DIRECTION ( 'NONE',  ( 1.000000000000000000, 0.000000000000000000, 0.000000000000000000 ) ) ;
#1135 = VERTEX_POINT ( 'NONE', #200 ) ;
#1136 =( NAMED_UNIT ( * ) SI_UNIT ( $, .STERADIAN. ) SOLID_ANGLE_UNIT ( ) );
#1137 = EDGE_LOOP ( 'NONE', ( #1208, #159, #1054, #1198 ) ) ;
#1138 = EDGE_CURVE ( 'NONE', #237, #1187, #527, .T. ) ;
#1139 = EDGE_CURVE ( 'NONE', #342, #552, #395, .T. ) ;
#1140 = LINE ( 'NONE', #1038, #330 ) ;
#1141 = DIRECTION ( 'NONE',  ( 0.000000000000000000, 1.000000000000000000, 0.000000000000000000 ) ) ;
#1142 = CIRCLE ( 'NONE', #921, 0.02500000000000001180 ) ;
#1143 = VECTOR ( 'NONE', #557, 1000.000000000000000 ) ;
#1144 = LINE ( 'NONE', #56, #1143 ) ;
#1145 = VERTEX_POINT ( 'NONE', #1091 ) ;
#1146 = EDGE_CURVE ( 'NONE', #305, #387, #1081, .T. ) ;
#1147 = VERTEX_POINT ( 'NONE', #206 ) ;
#1148 = FACE_OUTER_BOUND ( 'NONE', #504, .T. ) ;
#1149 = ORIENTED_EDGE ( 'NONE', *, *, #499, .T. ) ;
#1150 = EDGE_LOOP ( 'NONE', ( #1236, #415, #558, #1025 ) ) ;
#1151 = VECTOR ( 'NONE', #872, 1000.000000000000000 ) ;
#1152 = DIRECTION ( 'NONE',  ( -1.000000000000000000, -0.000000000000000000, 8.673617379884036705E-17 ) ) ;
#1153 = DIRECTION ( 'NONE',  ( 0.000000000000000000, -0.000000000000000000, 1.000000000000000000 ) ) ;
#1154 = EDGE_LOOP ( 'NONE', ( #1093, #596, #645, #768 ) ) ;
#1155 = EDGE_CURVE ( 'NONE', #1187, #348, #797, .T. ) ;
#1156 = ORIENTED_EDGE ( 'NONE', *, *, #382, .T. ) ;
#1157 = VECTOR ( 'NONE', #1127, 1000.000000000000000 ) ;
#1158 = EDGE_LOOP ( 'NONE', ( #770, #1085, #870 ) ) ;
#1159 = SURFACE_STYLE_USAGE ( .BOTH. , #602 ) ;
#1160 = EDGE_LOOP ( 'NONE', ( #1079, #174, #757 ) ) ;
#1161 = AXIS2_PLACEMENT_3D ( 'NONE', #483, #1262, #976 ) ;
#1162 = CARTESIAN_POINT ( 'NONE',  ( -0.1999999999999999278, 0.5250000000000000222, 0.2416666666666666130 ) ) ;
#1163 = CARTESIAN_POINT ( 'NONE',  ( -0.1999999999999999278, 0.5416666666666667407, 0.2249999999999999500 ) ) ;
#1164 = VERTEX_POINT ( 'NONE', #113 ) ;
#1165 = DIRECTION ( 'NONE',  ( 0.000000000000000000, -0.000000000000000000, -1.000000000000000000 ) ) ;
#1166 = CYLINDRICAL_SURFACE ( 'NONE', #11, 0.02500000000000001180 ) ;
#1167 = DIRECTION ( 'NONE',  ( 1.000000000000000000, 0.000000000000000000, 2.168404344971009854E-16 ) ) ;
#1168 = EDGE_LOOP ( 'NONE', ( #973, #979, #161, #164 ) ) ;
#1169 = EDGE_CURVE ( 'NONE', #254, #208, #718, .T. ) ;
#1170 =( NAMED_UNIT ( * ) SI_UNIT ( $, .STERADIAN. ) SOLID_ANGLE_UNIT ( ) );
#1171 = CARTESIAN_POINT ( 'NONE',  ( 0.2000000000066393113, 0.5416666666666667407, -0.2250000000000000056 ) ) ;
#1172 = DIRECTION ( 'NONE',  ( -0.000000000000000000, -1.000000000000000000, -0.000000000000000000 ) ) ;
#1173 = ORIENTED_EDGE ( 'NONE', *, *, #919, .F. ) ;
#1174 = VECTOR ( 'NONE', #905, 1000.000000000000000 ) ;
#1175 = DIRECTION ( 'NONE',  ( -1.000000000000000000, -0.000000000000000000, -0.000000000000000000 ) ) ;
#1176 = SURFACE_STYLE_USAGE ( .BOTH. , #107 ) ;
#1177 = UNCERTAINTY_MEASURE_WITH_UNIT (LENGTH_MEASURE( 1.000000000000000082E-05 ), #201, 'distance_accuracy_value', 'NONE');
#1178 = LINE ( 'NONE', #480, #233 ) ;
#1179 = DIRECTION ( 'NONE',  ( 2.168404344971009361E-16, -0.000000000000000000, 1.000000000000000000 ) ) ;
#1180 = DIRECTION ( 'NONE',  ( -2.168404344971009361E-16, 0.000000000000000000, 1.000000000000000000 ) ) ;
#1181 = VERTEX_POINT ( 'NONE', #148 ) ;
#1182 = CARTESIAN_POINT ( 'NONE',  ( 0.5000000000000000000, 0.5250000000000000222, -0.2249999999999999500 ) ) ;
#1183 = EDGE_CURVE ( 'NONE', #378, #1082, #606, .T. ) ;
#1184 = CARTESIAN_POINT ( 'NONE',  ( 500000.0000000000582, 0.5416666666666667407, -0.2250000000433680647 ) ) ;
#1185 = VECTOR ( 'NONE', #175, 1000.000000000000000 ) ;
#1186 = AXIS2_PLACEMENT_3D ( 'NONE', #479, #807, #294 ) ;
#1187 = VERTEX_POINT ( 'NONE', #485 ) ;
#1188 =( GEOMETRIC_REPRESENTATION_CONTEXT ( 3 ) GLOBAL_UNCERTAINTY_ASSIGNED_CONTEXT ( ( #490 ) ) GLOBAL_UNIT_ASSIGNED_CONTEXT ( ( #482, #702, #1170 ) ) REPRESENTATION_CONTEXT ( 'NONE', 'WORKASPACE' ) );
#1189 = CARTESIAN_POINT ( 'NONE',  ( 0.1999999999999999833, 0.02499999999999995628, -0.2249999999999999500 ) ) ;
#1190 = EDGE_CURVE ( 'NONE', #552, #888, #506, .T. ) ;
#1191 = DIRECTION ( 'NONE',  ( 2.168404344971009361E-16, -0.000000000000000000, 1.000000000000000000 ) ) ;
#1192 = AXIS2_PLACEMENT_3D ( 'NONE', #886, #1272, #1074 ) ;
#1193 = EDGE_CURVE ( 'NONE', #1135, #1164, #1234, .T. ) ;
#1194 = EDGE_CURVE ( 'NONE', #100, #1164, #977, .T. ) ;
#1195 = CARTESIAN_POINT ( 'NONE',  ( 0.000000000000000000, 0.000000000000000000, -0.2249999999999999500 ) ) ;
#1196 = DIRECTION ( 'NONE',  ( 1.000000000000000000, 0.000000000000000000, 0.000000000000000000 ) ) ;
#1197 = CARTESIAN_POINT ( 'NONE',  ( -0.4749999999999998668, 0.5250000000000000222, 0.2499999999999999445 ) ) ;
#1198 = ORIENTED_EDGE ( 'NONE', *, *, #990, .F. ) ;
#1199 = DIRECTION ( 'NONE',  ( 0.000000000000000000, 1.000000000000000000, -0.000000000000000000 ) ) ;
#1200 = AXIS2_PLACEMENT_3D ( 'NONE', #23, #121, #402 ) ;
#1201 = AXIS2_PLACEMENT_3D ( 'NONE', #887, #170, #567 ) ;
#1202 = FACE_OUTER_BOUND ( 'NONE', #893, .T. ) ;
#1203 = ORIENTED_EDGE ( 'NONE', *, *, #350, .T. ) ;
#1204 = CARTESIAN_POINT ( 'NONE',  ( -0.5000000000000000000, 0.02499999999999995628, -0.2249999999999999500 ) ) ;
#1205 = EDGE_LOOP ( 'NONE', ( #559, #593, #1058, #600 ) ) ;
#1206 = CARTESIAN_POINT ( 'NONE',  ( 0.2000000000066393113, 0.008333333333333296788, 0.2249999999999998945 ) ) ;
#1207 = CARTESIAN_POINT ( 'NONE',  ( 0.2000000000066393113, 0.5250000000000000222, 0.2249999999999998945 ) ) ;
#1208 = ORIENTED_EDGE ( 'NONE', *, *, #1096, .F. ) ;
#1209 = AXIS2_PLACEMENT_3D ( 'NONE', #303, #1279, #376 ) ;
#1210 = DIRECTION ( 'NONE',  ( 0.000000000000000000, 1.000000000000000000, 0.000000000000000000 ) ) ;
#1211 = ORIENTED_EDGE ( 'NONE', *, *, #1138, .F. ) ;
#1212 = COLOUR_RGB ( '',0.7921568627450980005, 0.8196078431372548767, 0.9333333333333333481 ) ;
#1213 = CARTESIAN_POINT ( 'NONE',  ( 0.000000000000000000, 0.5500000000000000444, 0.000000000000000000 ) ) ;
#1214 = ADVANCED_FACE ( 'NONE', ( #471 ), #993, .T. ) ;
#1215 = EDGE_CURVE ( 'NONE', #466, #254, #1107, .T. ) ;
#1216 = DIRECTION ( 'NONE',  ( 0.000000000000000000, 0.000000000000000000, 1.000000000000000000 ) ) ;
#1217 = FACE_OUTER_BOUND ( 'NONE', #1137, .T. ) ;
#1218 = CARTESIAN_POINT ( 'NONE',  ( -0.1999999999999999278, 0.000000000000000000, 0.2249999999999999500 ) ) ;
#1219 = ORIENTED_EDGE ( 'NONE', *, *, #821, .T. ) ;
#1220 = ADVANCED_FACE ( 'NONE', ( #912 ), #507, .T. ) ;
#1221 = DIRECTION ( 'NONE',  ( -1.000000000000000000, 0.000000000000000000, -0.000000000000000000 ) ) ;
#1222 = AXIS2_PLACEMENT_3D ( 'NONE', #123, #1115, #524 ) ;
#1223 = AXIS2_PLACEMENT_3D ( 'NONE', #71, #1252, #1134 ) ;
#1224 = AXIS2_PLACEMENT_3D ( 'NONE', #60, #733, #1045 ) ;
#1225 = CARTESIAN_POINT ( 'NONE',  ( 0.1999999999999999278, 0.000000000000000000, 0.2249999999999999500 ) ) ;
#1226 = DIRECTION ( 'NONE',  ( 1.000000000000000000, 0.000000000000000000, 0.000000000000000000 ) ) ;
#1227 = ORIENTED_EDGE ( 'NONE', *, *, #823, .F. ) ;
#1228 = CARTESIAN_POINT ( 'NONE',  ( 0.4749999999999999223, 0.000000000000000000, 1.029992063861229336E-16 ) ) ;
#1229 = EDGE_CURVE ( 'NONE', #29, #367, #1007, .T. ) ;
#1230 = SPHERICAL_SURFACE ( 'NONE', #130, 0.02500000000000000139 ) ;
#1231 = SPHERICAL_SURFACE ( 'NONE', #31, 0.02500000000000000139 ) ;
#1232 = SPHERICAL_SURFACE ( 'NONE', #607, 0.02500000000000000139 ) ;
#1233 = VERTEX_POINT ( 'NONE', #570 ) ;
#1234 = CIRCLE ( 'NONE', #683, 0.02500000000000001180 ) ;
#1235 = EDGE_CURVE ( 'NONE', #186, #400, #882, .T. ) ;
#1236 = ORIENTED_EDGE ( 'NONE', *, *, #397, .T. ) ;
#1237 = EDGE_CURVE ( 'NONE', #247, #69, #597, .T. ) ;
#1238 = EDGE_CURVE ( 'NONE', #1129, #17, #591, .T. ) ;
#1239 = DIRECTION ( 'NONE',  ( -0.000000000000000000, 1.000000000000000000, -0.000000000000000000 ) ) ;
#1240 = LINE ( 'NONE', #948, #582 ) ;
#1241 = FACE_OUTER_BOUND ( 'NONE', #799, .T. ) ;
#1242 = ORIENTED_EDGE ( 'NONE', *, *, #1010, .T. ) ;
#1243 = EDGE_LOOP ( 'NONE', ( #341, #166, #910, #155, #220, #1042, #6, #1211 ) ) ;
#1244 = ADVANCED_FACE ( 'NONE', ( #680 ), #491, .F. ) ;
#1245 = AXIS2_PLACEMENT_3D ( 'NONE', #224, #826, #1221 ) ;
#1246 = DIRECTION ( 'NONE',  ( 0.000000000000000000, 0.000000000000000000, -1.000000000000000000 ) ) ;
#1247 = AXIS2_PLACEMENT_3D ( 'NONE', #146, #843, #1039 ) ;
#1248 = VECTOR ( 'NONE', #531, 1000.000000000000000 ) ;
#1249 = SURFACE_STYLE_FILL_AREA ( #340 ) ;
#1250 = ORIENTED_EDGE ( 'NONE', *, *, #88, .F. ) ;
#1251 = ORIENTED_EDGE ( 'NONE', *, *, #587, .T. ) ;
#1252 = DIRECTION ( 'NONE',  ( 0.000000000000000000, 1.000000000000000000, 0.000000000000000000 ) ) ;
#1253 =( LENGTH_UNIT ( ) NAMED_UNIT ( * ) SI_UNIT ( .MILLI., .METRE. ) );
#1254 = ORIENTED_EDGE ( 'NONE', *, *, #832, .T. ) ;
#1255 = EDGE_LOOP ( 'NONE', ( #759, #427, #563, #44 ) ) ;
#1256 = ADVANCED_FACE ( 'NONE', ( #381 ), #775, .F. ) ;
#1257 = DIRECTION ( 'NONE',  ( 1.000000000000000000, 0.000000000000000000, -8.673617379884036705E-17 ) ) ;
#1258 = EDGE_CURVE ( 'NONE', #348, #434, #358, .T. ) ;
#1259 = VERTEX_POINT ( 'NONE', #1162 ) ;
#1260 = VERTEX_POINT ( 'NONE', #476 ) ;
#1261 = DIRECTION ( 'NONE',  ( -1.000000000000000000, 0.000000000000000000, -2.168404344971009361E-16 ) ) ;
#1262 = DIRECTION ( 'NONE',  ( -1.000000000000000000, 0.000000000000000000, 0.000000000000000000 ) ) ;
#1263 = CIRCLE ( 'NONE', #1022, 0.02500000000000001180 ) ;
#1264 = DIRECTION ( 'NONE',  ( 0.000000000000000000, -1.000000000000000000, 0.000000000000000000 ) ) ;
#1265 = ORIENTED_EDGE ( 'NONE', *, *, #989, .T. ) ;
#1266 = AXIS2_PLACEMENT_3D ( 'NONE', #787, #1180, #869 ) ;
#1267 = CIRCLE ( 'NONE', #1161, 0.02500000000000001180 ) ;
#1268 =( GEOMETRIC_REPRESENTATION_CONTEXT ( 3 ) GLOBAL_UNCERTAINTY_ASSIGNED_CONTEXT ( ( #379 ) ) GLOBAL_UNIT_ASSIGNED_CONTEXT ( ( #443, #1033, #1136 ) ) REPRESENTATION_CONTEXT ( 'NONE', 'WORKASPACE' ) );
#1269 = DIRECTION ( 'NONE',  ( 0.000000000000000000, -0.000000000000000000, 1.000000000000000000 ) ) ;
#1270 = CARTESIAN_POINT ( 'NONE',  ( 0.4999999999999998890, 0.5500000000000000444, 0.2499999999999999445 ) ) ;
#1271 = ORIENTED_EDGE ( 'NONE', *, *, #308, .T. ) ;
#1272 = DIRECTION ( 'NONE',  ( 0.000000000000000000, 1.000000000000000000, 0.000000000000000000 ) ) ;
#1273 = ADVANCED_FACE ( 'NONE', ( #690 ), #800, .F. ) ;
#1274 = ADVANCED_FACE ( 'NONE', ( #464 ), #981, .T. ) ;
#1275 = AXIS2_PLACEMENT_3D ( 'NONE', #278, #116, #616 ) ;
#1276 = DIRECTION ( 'NONE',  ( 0.000000000000000000, 0.000000000000000000, 1.000000000000000000 ) ) ;
#1277 = DIRECTION ( 'NONE',  ( -1.000000000000000000, -0.000000000000000000, 8.673617379884036705E-17 ) ) ;
#1278 = ORIENTED_EDGE ( 'NONE', *, *, #1146, .T. ) ;
#1279 = DIRECTION ( 'NONE',  ( -0.000000000000000000, -0.000000000000000000, 1.000000000000000000 ) ) ;
#1280 = LINE ( 'NONE', #677, #867 ) ;
ENDSEC;
END-ISO-10303-21;
